<?xml version="1.0" encoding="UTF-8" standalone="no"?>
<svg
   xmlns:dc="http://purl.org/dc/elements/1.1/"
   xmlns:cc="http://creativecommons.org/ns#"
   xmlns:rdf="http://www.w3.org/1999/02/22-rdf-syntax-ns#"
   xmlns:svg="http://www.w3.org/2000/svg"
   xmlns="http://www.w3.org/2000/svg"
   xmlns:sodipodi="http://sodipodi.sourceforge.net/DTD/sodipodi-0.dtd"
   xmlns:inkscape="http://www.inkscape.org/namespaces/inkscape"
   viewBox="0 0 50 50"
   enable-background="new 0 0 50 50"
   id="svg2"
   version="1.1"
   inkscape:version="0.91 r13725"
   sodipodi:docname="io.svg">
  <metadata
     id="metadata14">
    <rdf:RDF>
      <cc:Work
         rdf:about="">
        <dc:format>image/svg+xml</dc:format>
        <dc:type
           rdf:resource="http://purl.org/dc/dcmitype/StillImage" />
      </cc:Work>
    </rdf:RDF>
  </metadata>
  <defs
     id="defs12" />
  <sodipodi:namedview
     pagecolor="#ffffff"
     bordercolor="#666666"
     borderopacity="1"
     objecttolerance="10"
     gridtolerance="10"
     guidetolerance="10"
     inkscape:pageopacity="0"
     inkscape:pageshadow="2"
     inkscape:window-width="1600"
     inkscape:window-height="843"
     id="namedview10"
     showgrid="false"
     inkscape:zoom="13.350176"
     inkscape:cx="12.211049"
     inkscape:cy="25.504268"
     inkscape:window-x="1920"
     inkscape:window-y="568"
     inkscape:window-maximized="1"
     inkscape:current-layer="svg2" />
  <circle
     style="opacity:1;fill:#ffffff;fill-opacity:1;fill-rule:nonzero;stroke:none;stroke-width:12;stroke-linecap:square;stroke-linejoin:miter;stroke-miterlimit:4;stroke-dasharray:none;stroke-opacity:1"
     id="path4137"
     cx="25"
     cy="25"
     r="17" />
  <path
     d="M25 42c-9.4 0-17-7.6-17-17S15.6 8 25 8s17 7.6 17 17-7.6 17-17 17zm0-32c-8.3 0-15 6.7-15 15s6.7 15 15 15 15-6.7 15-15-6.7-15-15-15z"
     id="path4"
     style="fill:#000a79;fill-opacity:1" />
  <g
     id="g4139"
     style="fill:#008811;fill-opacity:1">
    <path
       inkscape:connector-curvature="0"
       id="path6"
       d="m 36,17.043785 -0.04104,11.446855 -1.549624,-0.0063 0.03511,-9.794732 -9.187053,-0.03744 L 25.263393,17 Z"
       style="fill:#008811;fill-opacity:1" />
    <path
       inkscape:connector-curvature="0"
       id="path8"
       d="m 26.329159,28.4514 -1.102643,-1.184598 9.44439,-9.992412 1.102642,1.184598 z"
       style="fill:#008811;fill-opacity:1" />
  </g>
  <g
     id="g4143"
     style="fill:#d00001;fill-opacity:1">
    <path
       inkscape:connector-curvature="0"
       id="path6-7"
       d="m 14.030873,32.956213 0.04104,-11.446853 1.549624,0.0063 -0.03511,9.794732 9.187054,0.03744 L 24.767531,33 Z"
       style="fill:#d00001;fill-opacity:1" />
    <path
       inkscape:connector-curvature="0"
       id="path8-2"
       d="m 23.444389,21.783748 1.102643,1.184598 -9.444389,9.992412 L 14,31.776161 Z"
       style="fill:#d00001;fill-opacity:1" />
  </g>
</svg>
