<?xml version="1.0" encoding="UTF-8" standalone="no"?>
<svg
   xmlns:dc="http://purl.org/dc/elements/1.1/"
   xmlns:cc="http://creativecommons.org/ns#"
   xmlns:rdf="http://www.w3.org/1999/02/22-rdf-syntax-ns#"
   xmlns:svg="http://www.w3.org/2000/svg"
   xmlns="http://www.w3.org/2000/svg"
   xmlns:sodipodi="http://sodipodi.sourceforge.net/DTD/sodipodi-0.dtd"
   xmlns:inkscape="http://www.inkscape.org/namespaces/inkscape"
   version="1.1"
   x="0px"
   y="0px"
   viewBox="0 0 100 100"
   enable-background="new 0 0 100 100"
   xml:space="preserve"
   id="svg2"
   inkscape:version="0.91 r13725"
   sodipodi:docname="icon_routing.svg"><metadata
     id="metadata14"><rdf:RDF><cc:Work
         rdf:about=""><dc:format>image/svg+xml</dc:format><dc:type
           rdf:resource="http://purl.org/dc/dcmitype/StillImage" /></cc:Work></rdf:RDF></metadata><defs
     id="defs12" /><sodipodi:namedview
     pagecolor="#ffffff"
     bordercolor="#666666"
     borderopacity="1"
     objecttolerance="10"
     gridtolerance="10"
     guidetolerance="10"
     inkscape:pageopacity="0"
     inkscape:pageshadow="2"
     inkscape:window-width="1600"
     inkscape:window-height="843"
     id="namedview10"
     showgrid="false"
     inkscape:zoom="4.72"
     inkscape:cx="31.195826"
     inkscape:cy="43.760868"
     inkscape:window-x="0"
     inkscape:window-y="595"
     inkscape:window-maximized="1"
     inkscape:current-layer="svg2" /><path
     fill="#000000"
     d="M23.5,37.4c-5.4,0-18.5,2.8-18.8,17.8S23.5,86,23.5,86s19-15.8,18.8-30.8S28.9,37.4,23.5,37.4z M23.5,65.6  c-5.6,0-10.1-4.5-10.1-10.1S18,45.3,23.5,45.3s10.1,4.5,10.1,10.1S29.1,65.6,23.5,65.6z"
     id="path4"
     style="fill:#000000;fill-opacity:1" /><path
     d="m 84.552542,11.645763 c -2.7,0 -9.2,1.4 -9.4,8.9 -0.2,7.5 9.4,15.4 9.4,15.4 0,0 9.5,-7.9 9.4,-15.4 -0.2,-7.5 -6.7,-8.9 -9.4,-8.9 z m 0,14.1 c -2.8,0 -5,-2.3 -5,-5 0,-2.7 2.3,-5 5,-5 2.7,0 5,2.3 5,5 0,2.7 -2.2,5 -5,5 z"
     id="path6"
     inkscape:connector-curvature="0"
     style="fill:#000000;fill-opacity:1" /><path
     d="M 65.822817,52.662782 C 62.602234,50.621321 56.330573,48.784006 57.517103,44.496939 58.873139,39.699506 71.162205,38.066337 77.857627,37.453899 77.264362,36.637315 76.586345,35.718657 75.908326,34.8 68.026374,35.004146 52.686229,36.433169 52.008212,44.496939 50.991185,55.31668 65.229552,56.745703 65.653313,62.768012 66.077074,68.382029 61.500455,73.7919 42.092206,74.506411 38.956375,79.916282 35.396783,84.407496 33.108475,86.959322 43.872002,86.346884 76.077831,82.876401 73.026753,61.951428 72.433488,57.66436 68.958648,54.602169 65.822817,52.662782 Z"
     id="path8"
     inkscape:connector-curvature="0"
     style="fill:#000000;fill-opacity:1" /></svg>