<?xml version="1.0" encoding="UTF-8" standalone="no"?>
<!-- Created with Inkscape (http://www.inkscape.org/) -->

<svg
   xmlns:dc="http://purl.org/dc/elements/1.1/"
   xmlns:cc="http://creativecommons.org/ns#"
   xmlns:rdf="http://www.w3.org/1999/02/22-rdf-syntax-ns#"
   xmlns:svg="http://www.w3.org/2000/svg"
   xmlns="http://www.w3.org/2000/svg"
   xmlns:sodipodi="http://sodipodi.sourceforge.net/DTD/sodipodi-0.dtd"
   xmlns:inkscape="http://www.inkscape.org/namespaces/inkscape"
   width="32"
   height="32"
   viewBox="0 0 32 32.000001"
   id="svg2"
   version="1.1"
   inkscape:version="0.91 r13725"
   sodipodi:docname="flickr.svg">
  <defs
     id="defs4" />
  <sodipodi:namedview
     id="base"
     pagecolor="#ffffff"
     bordercolor="#666666"
     borderopacity="1.0"
     inkscape:pageopacity="0.0"
     inkscape:pageshadow="2"
     inkscape:zoom="15.839192"
     inkscape:cx="15.111938"
     inkscape:cy="14.705196"
     inkscape:document-units="px"
     inkscape:current-layer="layer1"
     showgrid="false"
     units="px"
     inkscape:window-width="1600"
     inkscape:window-height="843"
     inkscape:window-x="1920"
     inkscape:window-y="611"
     inkscape:window-maximized="1" />
  <metadata
     id="metadata7">
    <rdf:RDF>
      <cc:Work
         rdf:about="">
        <dc:format>image/svg+xml</dc:format>
        <dc:type
           rdf:resource="http://purl.org/dc/dcmitype/StillImage" />
        <dc:title></dc:title>
      </cc:Work>
    </rdf:RDF>
  </metadata>
  <g
     inkscape:label="Calque 1"
     inkscape:groupmode="layer"
     id="layer1"
     transform="translate(0,-1020.3622)">
    <path
       style="opacity:1;fill:#e6e6e6;fill-opacity:1;fill-rule:nonzero;stroke:#e6e6e6;stroke-width:0.65689152;stroke-linecap:round;stroke-miterlimit:4;stroke-dasharray:none;stroke-dashoffset:0;stroke-opacity:1"
       d="M 5.6816406 0.328125 C 2.7163723 0.328125 0.328125 2.7163723 0.328125 5.6816406 L 0.328125 26.318359 C 0.328125 29.283628 2.7163723 31.671875 5.6816406 31.671875 L 26.318359 31.671875 C 29.283628 31.671875 31.671875 29.283628 31.671875 26.318359 L 31.671875 5.6816406 C 31.671875 2.7163723 29.283628 0.328125 26.318359 0.328125 L 5.6816406 0.328125 z M 9.5195312 11 A 4.5 4.5 0 0 1 12.949219 12.611328 A 4.5 4.5 0 0 1 12.394531 18.945312 L 12.371094 18.964844 A 4.5 4.5 0 0 1 6.0410156 18.376953 A 4.5 4.5 0 0 1 6.6171875 12.044922 A 4.5 4.5 0 0 1 9.5195312 11 z M 22.519531 11 A 4.5 4.5 0 0 1 25.949219 12.611328 A 4.5 4.5 0 0 1 25.394531 18.945312 L 25.371094 18.964844 A 4.5 4.5 0 0 1 19.041016 18.376953 A 4.5 4.5 0 0 1 19.617188 12.044922 A 4.5 4.5 0 0 1 22.519531 11 z "
       transform="translate(0,1020.3622)"
       id="rect4136" />
  </g>
</svg>
