<?xml version="1.0" encoding="UTF-8" standalone="no"?>
<!-- Created with Inkscape (http://www.inkscape.org/) -->

<svg
   xmlns:dc="http://purl.org/dc/elements/1.1/"
   xmlns:cc="http://creativecommons.org/ns#"
   xmlns:rdf="http://www.w3.org/1999/02/22-rdf-syntax-ns#"
   xmlns:svg="http://www.w3.org/2000/svg"
   xmlns="http://www.w3.org/2000/svg"
   xmlns:sodipodi="http://sodipodi.sourceforge.net/DTD/sodipodi-0.dtd"
   xmlns:inkscape="http://www.inkscape.org/namespaces/inkscape"
   id="svg9266"
   height="32"
   width="32"
   version="1.0"
   inkscape:version="0.91 r13725"
   sodipodi:docname="information_audioguide.svg">
  <defs
     id="defs10" />
  <sodipodi:namedview
     pagecolor="#ffffff"
     bordercolor="#666666"
     borderopacity="1"
     objecttolerance="10"
     gridtolerance="10"
     guidetolerance="10"
     inkscape:pageopacity="0"
     inkscape:pageshadow="2"
     inkscape:window-width="1600"
     inkscape:window-height="843"
     id="namedview8"
     showgrid="false"
     inkscape:zoom="8.34386"
     inkscape:cx="18.381512"
     inkscape:cy="8.7356923"
     inkscape:window-x="1920"
     inkscape:window-y="568"
     inkscape:window-maximized="1"
     inkscape:current-layer="layer1" />
  <metadata
     id="metadata9271">
    <rdf:RDF>
      <cc:Work
         rdf:about="">
        <dc:format>image/svg+xml</dc:format>
        <dc:type
           rdf:resource="http://purl.org/dc/dcmitype/StillImage" />
        <dc:title></dc:title>
      </cc:Work>
    </rdf:RDF>
  </metadata>
  <g
     id="layer1"
     style="fill:#4b4b4b"
     transform="translate(0,-128)">
    <circle
       style="opacity:1;fill:#ffffff;fill-opacity:1;fill-rule:nonzero;stroke:none;stroke-width:2;stroke-linecap:square;stroke-linejoin:miter;stroke-miterlimit:4;stroke-dasharray:none;stroke-opacity:1"
       id="path4139"
       cx="16"
       cy="144"
       r="15.853976" />
    <path
       id="p3"
       d="m 16,128 c -8.832,0 -16,7.168 -16,16 0,8.832 7.168,16 16,16 8.832,0 16,-7.168 16,-16 0,-8.832 -7.168,-16 -16,-16 z m 0,2.46154 c 7.47323,0 13.538462,6.06523 13.538462,13.53846 0,7.47323 -6.065232,13.53846 -13.538462,13.53846 -7.4732308,0 -13.5384616,-6.06523 -13.5384616,-13.53846 0,-7.47323 6.0652308,-13.53846 13.5384616,-13.53846 z"
       style="fill:#000000;fill-opacity:1"
       inkscape:connector-curvature="0" />
    <rect
       style="fill:none;fill-opacity:0.75;fill-rule:evenodd;stroke:none;stroke-width:1px;stroke-linecap:butt;stroke-linejoin:miter;stroke-opacity:1"
       id="rect6346"
       width="48"
       height="48"
       x="-18.307032"
       y="125.99159"
       rx="0"
       ry="0" />
    <g
       transform="matrix(0.6082219,0,0,0.55723804,125.72219,160.81976)"
       id="g4156">
      <g
         id="g4175"
         transform="translate(-200.83966,-54.238499)">
        <path
           inkscape:connector-curvature="0"
           style="fill:#000000;fill-opacity:1;fill-rule:evenodd;stroke:none;stroke-width:1px;stroke-linecap:butt;stroke-linejoin:miter;stroke-opacity:1"
           d="M 4.0217391,16.108696 4,32 l 10,0 10,10 0.02174,-35.8913043 -10,10.0000003 -9.9999999,0 z"
           id="path1880"
           sodipodi:nodetypes="ccccccc" />
        <path
           inkscape:connector-curvature="0"
           style="fill:none;fill-opacity:0.75;fill-rule:evenodd;stroke:#000000;stroke-width:4;stroke-linecap:round;stroke-linejoin:round;stroke-miterlimit:4;stroke-dasharray:none;stroke-opacity:1"
           d="m 31,16 c 5,4 5,12 0,16"
           id="path7235"
           sodipodi:nodetypes="cc" />
        <path
           inkscape:connector-curvature="0"
           style="fill:none;fill-opacity:0.75;fill-rule:evenodd;stroke:#000000;stroke-width:4;stroke-linecap:round;stroke-linejoin:round;stroke-miterlimit:4;stroke-dasharray:none;stroke-opacity:1"
           d="m 27,20 c 2,3 2,5 0,8"
           id="path10785"
           sodipodi:nodetypes="cc" />
      </g>
    </g>
  </g>
</svg>
