<?xml version="1.0" encoding="UTF-8" standalone="no"?>
<!-- Created with Inkscape (http://www.inkscape.org/) -->

<svg
   xmlns:dc="http://purl.org/dc/elements/1.1/"
   xmlns:cc="http://creativecommons.org/ns#"
   xmlns:rdf="http://www.w3.org/1999/02/22-rdf-syntax-ns#"
   xmlns:svg="http://www.w3.org/2000/svg"
   xmlns="http://www.w3.org/2000/svg"
   xmlns:sodipodi="http://sodipodi.sourceforge.net/DTD/sodipodi-0.dtd"
   xmlns:inkscape="http://www.inkscape.org/namespaces/inkscape"
   id="svg2286"
   sodipodi:version="0.32"
   inkscape:version="0.91 r13725"
   width="792"
   height="792"
   version="1.0"
   sodipodi:docname="emergency_fire_extinguisher.svg"
   inkscape:output_extension="org.inkscape.output.svg.inkscape"
   inkscape:export-filename="C:\Users\eadrpav\Documents\Code\panieravide.github.io\openlevelup\img\emergency_fire_extinguisher.png"
   inkscape:export-xdpi="2.73"
   inkscape:export-ydpi="2.73">
  <metadata
     id="metadata2291">
    <rdf:RDF>
      <cc:Work
         rdf:about="">
        <dc:format>image/svg+xml</dc:format>
        <dc:type
           rdf:resource="http://purl.org/dc/dcmitype/StillImage" />
      </cc:Work>
    </rdf:RDF>
  </metadata>
  <defs
     id="defs2289" />
  <sodipodi:namedview
     inkscape:window-height="692"
     inkscape:window-width="1016"
     inkscape:pageshadow="2"
     inkscape:pageopacity="0.0"
     guidetolerance="10.0"
     gridtolerance="10.0"
     objecttolerance="10.0"
     borderopacity="1.0"
     bordercolor="#666666"
     pagecolor="#ffffff"
     id="base"
     inkscape:zoom="0.33748278"
     inkscape:cx="248.11657"
     inkscape:cy="456.59771"
     inkscape:window-x="0"
     inkscape:window-y="0"
     inkscape:current-layer="svg2286"
     showgrid="false"
     inkscape:window-maximized="0" />
  <rect
     style="opacity:1;fill:#ffffff;fill-opacity:1;stroke:#ffffff;stroke-width:1;stroke-linejoin:miter;stroke-miterlimit:4;stroke-dasharray:1, 1;stroke-dashoffset:0;stroke-opacity:1"
     id="rect4137"
     width="533.36053"
     height="711.1474"
     x="130.37703"
     y="36.405891" />
  <path
     inkscape:connector-curvature="0"
     id="path2345"
     d="M 0.11941748,756.97514 0.34776134,36.499998 c 0,-22.556394 12.88471766,-36 35.99999566,-36 L 757.00809,0.27679556 c 22.7335,0 34.85065,13.98329144 34.85065,39.69271244 l 0.2298,714.974912 C 792.08854,779.51945 780.4911,792 751.91085,792 L 39.347757,791.9578 c -29.9692304,0 -39.22833952,-8.52095 -39.22833952,-34.98266 z M 498.56833,491.75 C 498.2683,306.5876 498.06571,284.34719 496.58694,274.22479 492.96756,249.44963 489.10821,230.96948 483.74868,212.75 l -1.98561,-6.75 -24.45766,0 -24.45765,0 0,-23.26943 0,-23.26944 7.75,0.31018 c 26.32599,1.05365 54.50759,8.36759 78.5,20.37303 l 7.75,3.87798 0,-11.51667 0,-11.51668 -14.25,-6.935 c -22.96071,-11.17423 -50.34207,-19.08263 -71.79884,-20.73726 l -7.95116,-0.61314 0,-6.29051 0,-6.29051 4.25,-0.56361 c 2.3375,-0.30999 21.8,-1.91151 43.25,-3.55894 21.45,-1.64743 40.9125,-3.24895 43.25,-3.55894 l 4.25,-0.56361 0,-9.93872 0,-9.93873 -86,0 -86,0 0,22 0,22 -28.54216,0 c -31.36493,0 -38.36715,0.82275 -50.62491,5.94832 -19.50637,8.15657 -36.07846,25.20893 -43.42382,44.68228 -5.54653,14.70446 -5.40911,10.84397 -5.40911,151.95737 l 0,130.41203 12,0 12,0 0,-129.95078 c 0,-90.40529 0.33382,-131.56339 1.09697,-135.25 3.99083,-19.27871 20.78539,-36.86737 40.48448,-42.39872 4.64255,-1.30358 12.00908,-1.76562 34.16855,-2.14308 l 28.25,-0.4812 0,23.59411 0,23.59411 -24.25,0.26778 -24.25,0.26778 -3.29475,11.5 c -4.02054,14.03335 -8.62232,36.54107 -10.63157,52 -3.23925,24.9225 -3.55435,45.85395 -3.56401,236.75 l -0.01,191.25 104.52739,0 104.52738,0 -0.3342,-206.25 z m -232.03962,66 c -0.29473,-1.2375 -3.78481,-18.5625 -7.75573,-38.5 l -7.21986,-36.25 -11.85268,0 c -6.51897,0 -11.85268,0.1295 -11.85268,0.28778 0,0.15829 -3.375,17.12878 -7.5,37.71222 -4.125,20.58344 -7.5,37.77893 -7.5,38.21222 0,0.43328 12.19878,0.78778 27.10841,0.78778 l 27.10841,0 z"
     style="fill:#fa0032"
     sodipodi:nodetypes="ccccccccccsscccccsscccsscccssscccccccsssscccsssscccccssscccccsscssssscs" />
</svg>
