<?xml version="1.0" encoding="UTF-8" standalone="no"?>
<!-- Created with Inkscape (http://www.inkscape.org/) -->

<svg
   xmlns:dc="http://purl.org/dc/elements/1.1/"
   xmlns:cc="http://creativecommons.org/ns#"
   xmlns:rdf="http://www.w3.org/1999/02/22-rdf-syntax-ns#"
   xmlns:svg="http://www.w3.org/2000/svg"
   xmlns="http://www.w3.org/2000/svg"
   xmlns:sodipodi="http://sodipodi.sourceforge.net/DTD/sodipodi-0.dtd"
   xmlns:inkscape="http://www.inkscape.org/namespaces/inkscape"
   id="svg3719"
   version="1.1"
   inkscape:version="0.47pre4 r22446"
   width="792"
   height="792"
   sodipodi:docname="PublicInformationSymbol_EmergencyTelephone.svg">
  <metadata
     id="metadata3725">
    <rdf:RDF>
      <cc:Work
         rdf:about="">
        <dc:format>image/svg+xml</dc:format>
        <dc:type
           rdf:resource="http://purl.org/dc/dcmitype/StillImage" />
        <dc:title></dc:title>
      </cc:Work>
    </rdf:RDF>
  </metadata>
  <defs
     id="defs3723">
    <inkscape:perspective
       sodipodi:type="inkscape:persp3d"
       inkscape:vp_x="0 : 0.5 : 1"
       inkscape:vp_y="0 : 1000 : 0"
       inkscape:vp_z="1 : 0.5 : 1"
       inkscape:persp3d-origin="0.5 : 0.33333333 : 1"
       id="perspective3727" />
  </defs>
  <sodipodi:namedview
     pagecolor="#ffffff"
     bordercolor="#666666"
     borderopacity="1"
     objecttolerance="10"
     gridtolerance="10"
     guidetolerance="10"
     inkscape:pageopacity="0"
     inkscape:pageshadow="2"
     inkscape:window-width="1071"
     inkscape:window-height="790"
     id="namedview3721"
     showgrid="false"
     inkscape:zoom="0.5959596"
     inkscape:cx="325.88887"
     inkscape:cy="379.7302"
     inkscape:window-x="336"
     inkscape:window-y="117"
     inkscape:window-maximized="0"
     inkscape:current-layer="svg3719" />
  <rect
     style="fill:#ffffff;fill-opacity:1;fill-rule:nonzero;stroke:#ffffff;stroke-width:0;stroke-linecap:square;stroke-linejoin:miter;stroke-miterlimit:4;stroke-opacity:1;stroke-dasharray:none;stroke-dashoffset:0"
     id="rect4291"
     width="711.45764"
     height="726.55933"
     x="50.338982"
     y="25.169491"
     rx="6.0726204"
     ry="6.0726204" />
  <path
     id="path3733"
     d="M 32.976908,789.72778 C 19.839304,785.24099 9.8244064,776.48261 3.7708168,764.18603 L 0.5,757.54205 0.5,396.02103 0.5,34.5 3.68498,27.776671 C 9.5119852,15.476162 21.919555,4.8306345 34.221136,1.577061 40.026331,0.04167879 67.473252,-0.06158628 398.05192,0.20820037 L 755.60384,0.5 l 7.94808,3.9250443 c 14.16372,6.9945467 23.79308,19.2775297 27.00973,34.4529567 2.13136,10.055323 2.10131,704.329539 -0.0309,714.391809 -3.36367,15.87351 -14.69905,29.16165 -30.66689,35.94992 L 754.5,791.5 397,791.72778 39.5,791.95557 32.976908,789.72778 z m 351.780272,-122.94844 0.25718,-65.72065 -4.16953,-6.77935 c -22.85242,-37.1563 -27.70266,-84.76349 -12.77834,-125.42498 3.31743,-9.03836 10.03226,-22.65973 14.0716,-28.54494 l 2.87623,-4.19058 -0.25716,-66.30942 L 384.5,303.5 l -7.73921,-0.29187 -7.7392,-0.29187 -6.94803,10.54206 C 331.876,359.27624 311.78863,414.94605 304.32561,473.5 c -2.22179,17.43195 -2.5376,67.94866 -0.53137,85 4.49529,38.20648 14.22581,75.52468 28.15659,107.98539 9.08171,21.16167 24.1113,48.70249 34.00166,62.30602 l 3.12005,4.29141 7.71373,-0.29141 L 384.5,732.5 l 0.25718,-65.72066 z m 52.2198,63.78121 c 1.33919,-3.52235 4.66071,-21.4264 6.13331,-33.06055 1.61339,-12.74643 1.63699,-48.12179 0.0404,-60.5007 -0.67397,-5.22539 -2.44608,-15.57539 -3.93802,-23 L 436.5,600.5 l -17.5,0 -17.5,0 -0.25909,65 c -0.1425,35.75 -0.0441,65.5625 0.21861,66.25 0.35636,0.93247 4.81038,1.25 17.53385,1.25 l 17.05613,0 0.92748,-2.43945 z m 0.67639,-299.34474 c 2.44207,-8.44101 5.38198,-28.84617 6.5252,-45.2896 1.66893,-24.00523 -0.91216,-55.00622 -6.44722,-77.43634 L 436.5,303.5 l -17.5,0 -17.5,0 -0.25909,65 c -0.1425,35.75 -0.04,65.57317 0.22771,66.27371 0.37396,0.97845 4.48069,1.21026 17.71605,1 l 17.22924,-0.27371 1.23946,-4.28419 z M 181.5,252.47729 c 17.20371,-3.00272 28.18281,-7.22105 39.13461,-15.03609 C 236.45326,226.15324 244,209.61406 244,186.23438 c 0,-32.32599 -13.86696,-48.37592 -52.01753,-60.20624 -7.41536,-2.29947 -17.73763,-5.50904 -22.93838,-7.13238 -12.41704,-3.87581 -18.73435,-7.9413 -21.27908,-13.69409 C 142.88252,94.164003 151.14179,84.7117 168,82.043777 182.84517,79.694429 203.2361,81.665206 219.11038,86.983579 224.06226,88.642611 228.45609,90 228.87445,90 c 0.88138,0 4.46959,-41.634323 3.69606,-42.885904 -1.75935,-2.846689 -26.46205,-7.021555 -46.07051,-7.78612 -51.18209,-1.995671 -86.21138,14.51207 -95.766542,45.130499 -1.755343,5.624797 -2.194557,9.455879 -2.183016,19.041525 0.02259,18.7612 4.062768,29.41588 15.377228,40.55251 8.65065,8.51468 19.71326,13.97669 43.57233,21.51322 32.55441,10.28318 39.59063,15.73206 38.25566,29.62534 -0.61562,6.40691 -3.06357,9.66579 -9.80034,13.04688 -16.18191,8.12149 -46.39472,5.23856 -76.667155,-7.31564 -1.766509,-0.73259 -3.477731,-1.06608 -3.802716,-0.74109 -0.324984,0.32498 -1.651716,10.42966 -2.948293,22.45483 -1.788988,16.59207 -2.07768,22.14559 -1.197284,23.03199 2.307961,2.3237 25.156498,6.56044 47.160128,8.74476 7.91444,0.78568 34.18396,-0.39676 43,-1.93551 z m 229,1.50598 c 23.01176,-2.55768 40.4697,-9.26966 55.20352,-21.22387 25.50393,-20.69248 37.95266,-59.68935 33.18976,-103.97018 C 494.88042,91.481507 477.93873,64.543042 449.5,50.25044 435.72794,43.328944 415.08274,39 395.84543,39 c -58.04248,0 -93.94345,28.327974 -102.98098,81.25804 -1.80375,10.56402 -2.01474,14.84619 -1.53935,31.24196 0.8547,29.47737 6.13207,47.64593 19.17082,66 19.31398,27.18742 57.68718,41.18665 100.00408,36.48327 z M 387,211.95822 c -16.9637,-3.52466 -29.20615,-17.1248 -35.22251,-39.12867 -2.00567,-7.33543 -2.26857,-10.53751 -2.20276,-26.82955 0.0629,-15.56614 0.40857,-19.71092 2.17984,-26.13565 6.00077,-21.76593 17.79323,-34.510621 35.07874,-37.911337 17.48476,-3.439918 34.38118,3.781473 44.00937,18.809247 4.86848,7.59878 8.91457,21.22613 10.26908,34.58658 3.71397,36.63347 -10.03915,68.50366 -32.43139,75.15344 -6.61043,1.96309 -16.15477,2.60403 -21.68037,1.45594 z m 252.49562,40.5179 c 4.94759,-0.86461 13.04759,-2.92344 18,-4.57517 29.0133,-9.67653 44.46965,-31.01771 44.46965,-61.40095 0,-18.48198 -4.36126,-30.11012 -15.39227,-41.03938 -8.95021,-8.86766 -20.36846,-14.7071 -40.073,-20.49387 -30.27311,-8.8905 -36.5421,-11.70718 -40.49839,-18.19607 -3.71853,-6.09894 -1.89514,-14.481296 4.14228,-19.042581 11.24403,-8.494881 43.31097,-8.812383 67.04335,-0.663809 4.94657,1.698418 9.24912,2.832688 9.56121,2.520598 0.88729,-0.887297 4.18004,-42.002126 3.42466,-42.761972 -0.96505,-0.970748 -15.28864,-4.445563 -24.67311,-5.985546 -4.9099,-0.805709 -16.11152,-1.290527 -29,-1.255152 -17.74059,0.04869 -22.59902,0.400602 -31.30229,2.267302 -25.9833,5.572966 -42.6188,15.583732 -51.92937,31.249609 -9.3552,15.740952 -9.63158,43.438841 -0.59905,60.034581 7.38702,13.57239 24.25617,23.96965 52.82429,32.55812 28.08219,8.44238 37.19119,14.63515 38.22577,25.98785 1.40773,15.44722 -15.44372,23.21454 -44.26012,20.40077 -13.99544,-1.36658 -27.85049,-4.81457 -37.77864,-9.40166 -5.53543,-2.55753 -7.82428,-3.18931 -8.48067,-2.34086 -0.49447,0.63914 -1.88504,10.80269 -3.09017,22.58566 -1.78754,17.47755 -1.9534,21.64925 -0.90044,22.64868 1.42684,1.35432 14.43077,4.63114 25.29069,6.37294 20.34291,3.26274 48.06731,3.48921 64.99562,0.53091 z"
     style="fill:#fa0032" />
</svg>
