<?xml version="1.0" encoding="UTF-8" standalone="no"?>
<svg
   xmlns:ns="http://ns.adobe.com/SaveForWeb/1.0/"
   xmlns:dc="http://purl.org/dc/elements/1.1/"
   xmlns:cc="http://creativecommons.org/ns#"
   xmlns:rdf="http://www.w3.org/1999/02/22-rdf-syntax-ns#"
   xmlns:svg="http://www.w3.org/2000/svg"
   xmlns="http://www.w3.org/2000/svg"
   xmlns:sodipodi="http://sodipodi.sourceforge.net/DTD/sodipodi-0.dtd"
   xmlns:inkscape="http://www.inkscape.org/namespaces/inkscape"
   version="1.1"
   x="0px"
   y="0px"
   viewBox="0 0 32 32"
   enable-background="new 0 0 100 100"
   xml:space="preserve"
   id="svg2"
   inkscape:version="0.91 r13725"
   sodipodi:docname="vending_cosmetics.svg"
   width="32"
   height="32"
   inkscape:export-filename="/home/adrien/Documents/Programmation/Web/panieravide.github.io/openlevelup/img/vending_cosmetics.png"
   inkscape:export-xdpi="67"
   inkscape:export-ydpi="67"><defs
     id="defs238" /><sodipodi:namedview
     pagecolor="#ffffff"
     bordercolor="#666666"
     borderopacity="1"
     objecttolerance="10"
     gridtolerance="10"
     guidetolerance="10"
     inkscape:pageopacity="0"
     inkscape:pageshadow="2"
     inkscape:window-width="1600"
     inkscape:window-height="843"
     id="namedview236"
     showgrid="false"
     inkscape:zoom="13.350176"
     inkscape:cx="10.234899"
     inkscape:cy="16.795005"
     inkscape:window-x="0"
     inkscape:window-y="595"
     inkscape:window-maximized="1"
     inkscape:current-layer="svg2" /><metadata
     id="metadata4"><ns:sfw><ns:slices /><ns:sliceSourceBounds
         y="-8242"
         x="-8141"
         width="16383"
         height="16383"
         bottomLeftOrigin="true" /><ns:optimizationSettings /></ns:sfw><rdf:RDF><cc:Work
         rdf:about=""><dc:format>image/svg+xml</dc:format><dc:type
           rdf:resource="http://purl.org/dc/dcmitype/StillImage" /><dc:title></dc:title></cc:Work></rdf:RDF></metadata><g
     display="none"
     id="g6"
     style="display:none"
     transform="translate(0,-68)"><rect
       x="-192"
       y="-138"
       display="inline"
       width="185"
       height="99"
       id="rect8"
       style="display:inline" /><rect
       y="-174"
       display="inline"
       width="100"
       height="30"
       id="rect10"
       x="0"
       style="display:inline" /><text
       transform="translate(66,-157.5)"
       display="inline"
       font-size="2.4"
       id="text12"
       style="font-size:2.4000001px;font-family:Helvetica;display:inline;fill:#000000">http://thenounproject.com</text>
<text
       transform="translate(7.166,-162.5)"
       display="inline"
       id="text14"
       style="display:inline"><tspan
         x="0"
         y="0"
         font-size="6.1578"
         id="tspan16"
         style="font-size:6.1578002px;font-family:Helvetica-Bold;fill:#000000">The Noun Project</tspan><tspan
         x="1.12"
         y="4.8000002"
         font-size="4"
         id="tspan18"
         style="font-size:4px;font-family:Helvetica-Bold;fill:#000000">Icon Template</tspan></text>
<text
       transform="translate(-178.5,-127.5)"
       display="inline"
       font-size="6.1578"
       id="text20"
       style="font-size:6.1578002px;font-family:Helvetica-Bold;display:inline;fill:#000000">Reminders</text>
<line
       display="inline"
       stroke-miterlimit="10"
       x1="8"
       y1="-152.5"
       x2="18"
       y2="-152.5"
       id="line22"
       style="display:inline;fill:#000000;stroke:#ffffff;stroke-miterlimit:10" /><line
       display="inline"
       stroke-miterlimit="10"
       x1="-179"
       y1="-121.5"
       x2="-162"
       y2="-121.5"
       id="line24"
       style="display:inline;fill:#000000;stroke:#ffffff;stroke-miterlimit:10" /><g
       display="inline"
       id="g26"
       style="display:inline"><g
         id="g28"><g
           id="g30"><rect
             x="-170.802"
             y="-106.682"
             width="8.7209997"
             height="8.6420002"
             id="rect32"
             style="fill:#000000" /><path
             d="m -164.455,-95.688 4.747,0 0,-4.703 -4.747,0 0,4.703 z m 5.189,0.437 -5.63,0 0,-5.579 5.63,0 0,5.579 0,0 z m -6.955,1.313 8.279,0 0,-8.203 -8.279,0 0,8.203 0,0 z m 8.721,0.438 -9.163,0 0,-9.079 9.163,0 0,9.079 0,0 z"
             id="path34"
             inkscape:connector-curvature="0"
             style="fill:#000000" /><polygon
             points="-158.013,-102.213 -157.871,-102.071 -166.149,-93.867 -166.292,-94.009 "
             id="polygon36"
             style="fill:#000000" /></g></g></g><rect
       x="-179"
       y="-80"
       display="inline"
       width="35"
       height="32.5"
       id="rect38"
       style="display:inline;fill:none" /><text
       transform="translate(-179,-77.8428)"
       display="inline"
       id="text40"
       style="display:inline"><tspan
         x="0"
         y="0"
         font-size="3"
         id="tspan42"
         style="font-size:3px;font-family:Helvetica-Bold;fill:#000000">Strokes</tspan><tspan
         x="0"
         y="5"
         font-size="2.4"
         id="tspan44"
         style="font-size:2.4000001px;font-family:Helvetica;fill:#000000">Try to keep strokes at 4px</tspan><tspan
         x="0"
         y="10"
         font-size="2.4"
         id="tspan46"
         style="font-size:2.4000001px;font-family:Helvetica;fill:#000000">Minimum stroke weight is 2px</tspan><tspan
         x="0"
         y="14.5"
         font-size="2.4"
         id="tspan48"
         style="font-size:2.4000001px;font-family:Helvetica;fill:#000000">For thicker strokes use even </tspan><tspan
         x="0"
         y="17.5"
         font-size="2.4"
         id="tspan50"
         style="font-size:2.4000001px;font-family:Helvetica;fill:#000000">numbers: 6px, 8px etc.</tspan><tspan
         x="0"
         y="22"
         font-size="2.4"
         id="tspan52"
         style="font-size:2.4000001px;font-family:Helvetica-Bold;fill:#000000">Remember to expand strokes </tspan><tspan
         x="0"
         y="25"
         font-size="2.4"
         id="tspan54"
         style="font-size:2.4000001px;font-family:Helvetica-Bold;fill:#000000">before saving as an SVG </tspan></text>
<rect
       x="-136.5"
       y="-80"
       display="inline"
       width="35"
       height="32.5"
       id="rect56"
       style="display:inline;fill:none" /><text
       transform="translate(-136.5,-77.8428)"
       display="inline"
       id="text58"
       style="display:inline"><tspan
         x="0"
         y="0"
         font-size="3"
         id="tspan60"
         style="font-size:3px;font-family:Helvetica-Bold;fill:#000000">Size</tspan><tspan
         x="0"
         y="5"
         font-size="2.4"
         id="tspan62"
         style="font-size:2.4000001px;font-family:Helvetica;fill:#000000">Cannot be wider or taller than </tspan><tspan
         x="0"
         y="8.5"
         font-size="2.4"
         id="tspan64"
         style="font-size:2.4000001px;font-family:Helvetica;fill:#000000">100px (artboar size)</tspan><tspan
         x="0"
         y="13.5"
         font-size="2.4"
         id="tspan66"
         style="font-size:2.4000001px;font-family:Helvetica;fill:#000000">Scale your icon to fill as much of </tspan><tspan
         x="0"
         y="16.5"
         font-size="2.4"
         id="tspan68"
         style="font-size:2.4000001px;font-family:Helvetica;fill:#000000">the Safe Area as possible (within </tspan><tspan
         x="0"
         y="19.5"
         font-size="2.4"
         id="tspan70"
         style="font-size:2.4000001px;font-family:Helvetica;fill:#000000">the guides)</tspan></text>
<rect
       x="-94"
       y="-80"
       display="inline"
       width="35"
       height="32.5"
       id="rect72"
       style="display:inline;fill:none" /><text
       transform="translate(-94,-77.8428)"
       display="inline"
       id="text74"
       style="display:inline"><tspan
         x="0"
         y="0"
         font-size="3"
         id="tspan76"
         style="font-size:3px;font-family:Helvetica-Bold;fill:#000000">Ungroup</tspan><tspan
         x="0"
         y="5"
         font-size="2.4"
         id="tspan78"
         style="font-size:2.4000001px;font-family:Helvetica;fill:#000000">If your design has more than one </tspan><tspan
         x="0"
         y="8"
         font-size="2.4"
         id="tspan80"
         style="font-size:2.4000001px;font-family:Helvetica;fill:#000000">shape, make sure to ungroup.</tspan></text>
<rect
       x="-50"
       y="-80"
       display="inline"
       width="35"
       height="32.5"
       id="rect82"
       style="display:inline;fill:none" /><text
       transform="translate(-50,-77.8428)"
       display="inline"
       id="text84"
       style="display:inline"><tspan
         x="0"
         y="0"
         font-size="3"
         id="tspan86"
         style="font-size:3px;font-family:Helvetica-Bold;fill:#000000">Save as</tspan><tspan
         x="0"
         y="5"
         font-size="2.4"
         id="tspan88"
         style="font-size:2.4000001px;font-family:Helvetica;fill:#000000">Save as .SVG and make sure </tspan><tspan
         x="0"
         y="8"
         font-size="2.4"
         id="tspan90"
         style="font-size:2.4000001px;font-family:Helvetica;fill:#000000">“Use Artboards” is checked.</tspan></text>
<text
       transform="matrix(1.0074,0,0,1,-125.542,-107.4067)"
       display="inline"
       font-size="2.5731"
       id="text92"
       style="font-size:2.57310009px;font-family:Helvetica;display:inline;fill:#000000">100px</text>
<text
       transform="matrix(1.0074,0,0,1,-41,-99)"
       display="inline"
       font-size="5.1462"
       id="text94"
       style="font-size:5.14620018px;font-family:Helvetica-Bold;display:inline;fill:#000000">.SVG</text>
<rect
       x="-126.514"
       y="-103.185"
       display="inline"
       width="10.261"
       height="10.185"
       id="rect96"
       style="display:inline;fill:#000000" /><rect
       x="-126.477"
       y="-106.234"
       display="inline"
       width="0.52200001"
       height="2.3369999"
       id="rect98"
       style="display:inline;fill:#000000" /><rect
       x="-116.812"
       y="-106.234"
       display="inline"
       width="0.523"
       height="2.3369999"
       id="rect100"
       style="display:inline;fill:#000000" /><rect
       x="-127"
       y="-105.663"
       display="inline"
       width="11.233"
       height="0.57200003"
       id="rect102"
       style="display:inline;fill:#000000" /><g
       display="inline"
       id="g104"
       style="display:inline"><rect
         x="-83.805"
         y="-104.156"
         width="10.305"
         height="10.156"
         id="rect106"
         style="fill:#000000" /><rect
         x="-76.808998"
         y="-109.293"
         width="3.3080001"
         height="3.2609999"
         id="rect108"
         style="fill:#000000" /></g><rect
       x="-178.5"
       y="-115.5"
       display="inline"
       stroke-miterlimit="10"
       width="30"
       height="30"
       id="rect110"
       style="display:inline;fill:#000000;stroke:#ffffff;stroke-miterlimit:10" /><rect
       x="-136.5"
       y="-115.5"
       display="inline"
       stroke-miterlimit="10"
       width="30"
       height="30"
       id="rect112"
       style="display:inline;fill:#000000;stroke:#ffffff;stroke-miterlimit:10" /><rect
       x="-93.5"
       y="-115.5"
       display="inline"
       stroke-miterlimit="10"
       width="30"
       height="30"
       id="rect114"
       style="display:inline;fill:#000000;stroke:#ffffff;stroke-miterlimit:10" /><rect
       x="-49.5"
       y="-115.5"
       display="inline"
       stroke-miterlimit="10"
       width="30"
       height="30"
       id="rect116"
       style="display:inline;fill:#000000;stroke:#ffffff;stroke-miterlimit:10" /></g><g
     id="g182"
     transform="matrix(0.45692631,0,0,0.45692631,-6.8387368,-6.3446945)"
     style="fill:#d40000;fill-opacity:1"><path
       style="fill:#d40000;fill-opacity:1"
       inkscape:connector-curvature="0"
       id="path184"
       d="m 56.37,31.562 c 0.071,-2.527 0.354,-5.067 0.856,-7.408 0.077,-0.362 0.168,-0.168 0.256,-1.154 L 19.419,23 C 14.9,23 15,26.774 15,30.991 l 0,5.728 C 15,40.937 14.9,44 19.419,44 l 38.258,0 C 56.709,40 56.256,35.621 56.37,31.562 Z" /><path
       style="fill:#d40000;fill-opacity:1"
       inkscape:connector-curvature="0"
       id="path186"
       d="M 33.448,54 18.245,54 C 14.406,54 15,56.517 15,60.076 l 0,4.832 C 15,68.467 14.406,71 18.245,71 l 15.357,0 C 32.912,64.2 32.994,58.533 33.448,54 Z" /><path
       style="fill:#d40000;fill-opacity:1"
       inkscape:connector-curvature="0"
       id="path188"
       d="m 85,36.719 0,-5.728 C 85,26.774 83.584,23 78.442,23 l -18.717,0 c -0.141,0.986 -0.271,0.949 -0.392,1.438 C 57.88,30.398 58.112,37 59.931,44 l 18.512,0 C 83.584,44 85,40.937 85,36.719 Z m -7.808,-2.945 c 0,-4.755 2.016,-8.61 3.409,-8.61 0.038,0 0.076,0.014 0.114,0.02 -0.974,1.433 -0.785,5.269 -0.768,8.591 0.021,3.852 -0.206,7.157 0.768,8.59 -0.038,0.007 -0.076,0.021 -0.114,0.021 -1.393,-0.001 -3.409,-3.857 -3.409,-8.612 z" /><path
       style="fill:#d40000;fill-opacity:1"
       inkscape:connector-curvature="0"
       id="path190"
       d="M 84.648,74.902 84,62.812 l 0,-0.637 0.648,-12.092 -3.688,0 c 0,0 -38.085,3.149 -43.814,3.149 0,0 -1.444,-0.245 -2.136,1.229 L 36,62.363 36,63 35.01,70.524 c 0.692,1.475 2.136,1.229 2.136,1.229 5.729,0 43.814,3.149 43.814,3.149 l 3.688,0 z m -4.359,-2.313 0,-20.495 c 0,-0.344 0.436,-0.622 0.972,-0.622 0.537,0 0.974,0.278 0.974,0.622 l 0,20.495 c 0,0.345 -0.437,0.623 -0.974,0.623 -0.536,0 -0.972,-0.278 -0.972,-0.623 z" /></g></svg>