<?xml version="1.0" encoding="UTF-8" standalone="no"?>
<svg
   xmlns:dc="http://purl.org/dc/elements/1.1/"
   xmlns:cc="http://creativecommons.org/ns#"
   xmlns:rdf="http://www.w3.org/1999/02/22-rdf-syntax-ns#"
   xmlns:svg="http://www.w3.org/2000/svg"
   xmlns="http://www.w3.org/2000/svg"
   xmlns:sodipodi="http://sodipodi.sourceforge.net/DTD/sodipodi-0.dtd"
   xmlns:inkscape="http://www.inkscape.org/namespaces/inkscape"
   version="1.1"
   x="0px"
   y="0px"
   viewBox="0 0 32 32"
   enable-background="new 0 0 90 90"
   xml:space="preserve"
   id="svg2"
   inkscape:version="0.91 r13725"
   sodipodi:docname="vending_canned.svg"
   width="32"
   height="32"
   inkscape:export-filename="/home/adrien/Documents/Programmation/Web/panieravide.github.io/openlevelup/img/vending_canned.png"
   inkscape:export-xdpi="67"
   inkscape:export-ydpi="67"><metadata
     id="metadata14"><rdf:RDF><cc:Work
         rdf:about=""><dc:format>image/svg+xml</dc:format><dc:type
           rdf:resource="http://purl.org/dc/dcmitype/StillImage" /><dc:title></dc:title></cc:Work></rdf:RDF></metadata><defs
     id="defs12" /><sodipodi:namedview
     pagecolor="#ffffff"
     bordercolor="#666666"
     borderopacity="1"
     objecttolerance="10"
     gridtolerance="10"
     guidetolerance="10"
     inkscape:pageopacity="0"
     inkscape:pageshadow="2"
     inkscape:window-width="1600"
     inkscape:window-height="843"
     id="namedview10"
     showgrid="false"
     inkscape:zoom="14.833529"
     inkscape:cx="10.246029"
     inkscape:cy="14.912878"
     inkscape:window-x="0"
     inkscape:window-y="595"
     inkscape:window-maximized="1"
     inkscape:current-layer="svg2" /><path
     d="M 27.86298,2.6780579 C 26.819657,0.5770186 19.833874,8e-7 16,8e-7 12.166126,8e-7 5.179895,0.5770186 4.136572,2.6780579 L 4,3.1326375 4,27.059285 C 4,29.875809 9.1588494,32 16,32 22.841151,32 28,29.876254 28,27.059285 L 28,3.1326375 Z"
     id="path6-6"
     inkscape:connector-curvature="0"
     style="fill:#ffffff;fill-opacity:1"
     sodipodi:nodetypes="csccssscc" /><g
     id="g4"
     transform="matrix(0.4477779,0,0,0.44522978,-4.4289712,-4.0498101)"
     style="fill:#d40000;fill-opacity:1"><path
       d="M 72.116,15.111 C 69.786,10.392 54.185,9.096 45.623,9.096 c -8.562,0 -24.164,1.296 -26.494,6.015 l -0.305,1.021 0,53.74 c 0,6.326 11.521,11.097 26.799,11.097 15.278,0 26.799,-4.77 26.799,-11.097 l 0,-53.74 -0.306,-1.021 z m -2.167,54.761 c 0,4.079 -9.991,8.625 -24.326,8.625 -14.335,0 -24.326,-4.546 -24.326,-8.625 l 0,-21.575 c 2.54,1.851 8.801,3.306 16.7,3.887 0.259,-3.991 3.569,-7.151 7.626,-7.151 4.057,0 7.367,3.16 7.626,7.151 7.9,-0.581 14.16,-2.035 16.7,-3.887 l 0,21.575 z M 45.622,23.597 c -2.535,0 -24.768,-0.159 -24.768,-5.664 0,-5.505 22.233,-5.664 24.768,-5.664 2.535,0 24.768,0.159 24.768,5.664 0.001,5.505 -22.233,5.664 -24.768,5.664 z"
       id="path6"
       inkscape:connector-curvature="0"
       style="fill:#d40000;fill-opacity:1" /><path
       d="m 23.402,17.933 c 1.159,1.212 9.093,3.192 22.22,3.192 13.127,0 21.062,-1.98 22.22,-3.192 -1.16,-1.212 -9.094,-3.192 -22.22,-3.192 -13.126,0 -21.06,1.98 -22.22,3.192 z"
       id="path8"
       inkscape:connector-curvature="0"
       style="fill:#d40000;fill-opacity:1" /></g></svg>