<?xml version="1.0" encoding="UTF-8" standalone="no"?>
<!-- Created with Inkscape (http://www.inkscape.org/) -->

<svg
   xmlns:dc="http://purl.org/dc/elements/1.1/"
   xmlns:cc="http://creativecommons.org/ns#"
   xmlns:rdf="http://www.w3.org/1999/02/22-rdf-syntax-ns#"
   xmlns:svg="http://www.w3.org/2000/svg"
   xmlns="http://www.w3.org/2000/svg"
   xmlns:xlink="http://www.w3.org/1999/xlink"
   xmlns:sodipodi="http://sodipodi.sourceforge.net/DTD/sodipodi-0.dtd"
   xmlns:inkscape="http://www.inkscape.org/namespaces/inkscape"
   width="32"
   height="32"
   viewBox="0 0 32.000001 32.000001"
   id="svg2"
   version="1.1"
   inkscape:version="0.91 r13725"
   sodipodi:docname="favicon.svg"
   inkscape:export-filename="/home/adrien/Documents/Programmation/Web/panieravide.github.io/openrandommap/img/favicon.png"
   inkscape:export-xdpi="90"
   inkscape:export-ydpi="90">
  <defs
     id="defs4">
    <linearGradient
       id="linearGradient8735"
       y2="4.302"
       gradientUnits="userSpaceOnUse"
       x2="122"
       y1="245.45"
       x1="122">
      <stop
         id="stop8731"
         offset="0" />
      <stop
         id="stop8733"
         stop-opacity="0"
         offset="1" />
    </linearGradient>
    <filter
       id="filter8725">
      <feGaussianBlur
         id="feGaussianBlur8727"
         stdDeviation="4.4575" />
    </filter>
    <clipPath
       id="clipPath5466"
       clipPathUnits="userSpaceOnUse">
      <path
         style="fill:#ceeeab"
         inkscape:connector-curvature="0"
         id="path5468"
         d="m 9,12.25 c 0,0 7.5,13 11.75,27.75 C 25,54.75 27,65.5 27,65.5 c 0,0 -5.5,12.75 -8.25,24.75 -2.75,12 -5.75,23 -5.75,23 0,0 5.75,16 9.25,30 3.5,14 3.75,24.25 3.75,24.25 0,0 -4,10.25 -7.5,24.25 -3.5,14 -5,30.75 -5,30.75 0,0 9.25,-2 28.5,1.25 19.25,3.25 32.25,6 32.25,6 0,0 12.75,-2.75 24,-6.25 11.25,-3.5 16.25,-6.5 16.25,-6.5 0,0 5.5,0.5 22.5,6.25 17,5.75 29.25,8.5 29.25,8.5 0,0 13,-2.75 26,-5.75 13,-3 26.5,-8 26.5,-8 0,0 -0.75,-5 4.25,-24.5 5,-19.5 8.75,-28 8.75,-28 0,0 -0.5,-4.5 -3.75,-19.75 C 224.75,130.5 218,116 218,116 c 0,0 1.75,-10.5 6.75,-23.75 C 229.75,79 235,65.5 235,65.5 c 0,0 -4.75,-15.25 -7.5,-29.75 C 224.75,21.25 219.25,10 219.25,10 c 0,0 -24.25,9 -31.75,10.5 -7.5,1.5 -21,5.25 -21,5.25 0,0 -9.75,-4.25 -22,-8.5 -12.25,-4.25 -29.75,-5.5 -29.75,-5.5 0,0 -3.25,3.5 -22,8 -18.75,4.5 -27.5,5.75 -27.5,5.75 0,0 -18.5,-9 -31.5,-11.5 -13,-2.5 -24,-2 -24.75,-1.75 z" />
    </clipPath>
    <clipPath
       id="clipPath5383"
       clipPathUnits="userSpaceOnUse">
      <path
         style="fill:#ceeeab"
         inkscape:connector-curvature="0"
         id="path5385"
         d="m 9,12.25 c 0,0 7.5,13 11.75,27.75 C 25,54.75 27,65.5 27,65.5 c 0,0 -5.5,12.75 -8.25,24.75 -2.75,12 -5.75,23 -5.75,23 0,0 5.75,16 9.25,30 3.5,14 3.75,24.25 3.75,24.25 0,0 -4,10.25 -7.5,24.25 -3.5,14 -5,30.75 -5,30.75 0,0 9.25,-2 28.5,1.25 19.25,3.25 32.25,6 32.25,6 0,0 12.75,-2.75 24,-6.25 11.25,-3.5 16.25,-6.5 16.25,-6.5 0,0 5.5,0.5 22.5,6.25 17,5.75 29.25,8.5 29.25,8.5 0,0 13,-2.75 26,-5.75 13,-3 26.5,-8 26.5,-8 0,0 -0.75,-5 4.25,-24.5 5,-19.5 8.75,-28 8.75,-28 0,0 -0.5,-4.5 -3.75,-19.75 C 224.75,130.5 218,116 218,116 c 0,0 1.75,-10.5 6.75,-23.75 C 229.75,79 235,65.5 235,65.5 c 0,0 -4.75,-15.25 -7.5,-29.75 C 224.75,21.25 219.25,10 219.25,10 c 0,0 -24.25,9 -31.75,10.5 -7.5,1.5 -21,5.25 -21,5.25 0,0 -9.75,-4.25 -22,-8.5 -12.25,-4.25 -29.75,-5.5 -29.75,-5.5 0,0 -3.25,3.5 -22,8 -18.75,4.5 -27.5,5.75 -27.5,5.75 0,0 -18.5,-9 -31.5,-11.5 -13,-2.5 -24,-2 -24.75,-1.75 z" />
    </clipPath>
    <clipPath
       id="clipPath5426"
       clipPathUnits="userSpaceOnUse">
      <path
         style="fill:#ceeeab"
         inkscape:connector-curvature="0"
         id="path5428"
         d="m 9,12.25 c 0,0 7.5,13 11.75,27.75 C 25,54.75 27,65.5 27,65.5 c 0,0 -5.5,12.75 -8.25,24.75 -2.75,12 -5.75,23 -5.75,23 0,0 5.75,16 9.25,30 3.5,14 3.75,24.25 3.75,24.25 0,0 -4,10.25 -7.5,24.25 -3.5,14 -5,30.75 -5,30.75 0,0 9.25,-2 28.5,1.25 19.25,3.25 32.25,6 32.25,6 0,0 12.75,-2.75 24,-6.25 11.25,-3.5 16.25,-6.5 16.25,-6.5 0,0 5.5,0.5 22.5,6.25 17,5.75 29.25,8.5 29.25,8.5 0,0 13,-2.75 26,-5.75 13,-3 26.5,-8 26.5,-8 0,0 -0.75,-5 4.25,-24.5 5,-19.5 8.75,-28 8.75,-28 0,0 -0.5,-4.5 -3.75,-19.75 C 224.75,130.5 218,116 218,116 c 0,0 1.75,-10.5 6.75,-23.75 C 229.75,79 235,65.5 235,65.5 c 0,0 -4.75,-15.25 -7.5,-29.75 C 224.75,21.25 219.25,10 219.25,10 c 0,0 -24.25,9 -31.75,10.5 -7.5,1.5 -21,5.25 -21,5.25 0,0 -9.75,-4.25 -22,-8.5 -12.25,-4.25 -29.75,-5.5 -29.75,-5.5 0,0 -3.25,3.5 -22,8 -18.75,4.5 -27.5,5.75 -27.5,5.75 0,0 -18.5,-9 -31.5,-11.5 -13,-2.5 -24,-2 -24.75,-1.75 z" />
    </clipPath>
    <linearGradient
       id="linearGradient5168"
       y2="-213.25"
       xlink:href="#linearGradient4680"
       gradientUnits="userSpaceOnUse"
       x2="9"
       gradientTransform="matrix(0.14159292,0,0,0.14159292,36.238385,520.38595)"
       y1="72.064003"
       x1="210.17" />
    <linearGradient
       id="linearGradient4680">
      <stop
         id="stop4682"
         offset="0" />
      <stop
         id="stop4684"
         stop-opacity="0"
         offset="1" />
    </linearGradient>
    <linearGradient
       id="linearGradient4806-9"
       y2="-113.72"
       xlink:href="#linearGradient4744-9"
       gradientUnits="userSpaceOnUse"
       x2="166.5"
       y1="-161.36"
       x1="214.25" />
    <linearGradient
       id="linearGradient4744-9">
      <stop
         id="stop4746-3"
         stop-color="#fff"
         offset="0" />
      <stop
         id="stop4748-8"
         stop-color="#fff"
         stop-opacity="0"
         offset="1" />
    </linearGradient>
    <linearGradient
       id="linearGradient4790-3"
       y2="-62.469002"
       xlink:href="#linearGradient4744-9"
       gradientUnits="userSpaceOnUse"
       x2="57.655998"
       y1="-126.5"
       x1="53.25" />
    <linearGradient
       id="linearGradient4758-2"
       y2="-17.125"
       xlink:href="#linearGradient4744-9"
       gradientUnits="userSpaceOnUse"
       x2="75.719002"
       y1="6.625"
       x1="39.5" />
    <linearGradient
       id="linearGradient4750-9"
       y2="-121.44"
       xlink:href="#linearGradient4744-9"
       gradientUnits="userSpaceOnUse"
       x2="85.311996"
       y1="-162.34"
       x1="102" />
    <linearGradient
       id="linearGradient4782-5"
       y2="-14.75"
       xlink:href="#linearGradient4744-9"
       gradientUnits="userSpaceOnUse"
       x2="63.5"
       y1="-78.094002"
       x1="117.75" />
    <linearGradient
       id="linearGradient4798-4"
       y2="-60.75"
       xlink:href="#linearGradient4744-9"
       gradientUnits="userSpaceOnUse"
       x2="133.94"
       y1="-125.12"
       x1="180.69" />
    <linearGradient
       id="linearGradient4766-3"
       y2="33.375"
       xlink:href="#linearGradient4744-9"
       gradientUnits="userSpaceOnUse"
       x2="130.22"
       y1="-23.5"
       x1="170.75" />
    <linearGradient
       id="linearGradient4965"
       y2="-5.6563001"
       xlink:href="#linearGradient4744-9"
       gradientUnits="userSpaceOnUse"
       y1="-76"
       x2="181.75"
       x1="213.5" />
    <linearGradient
       id="linearGradient4686-3"
       y2="-179.97"
       xlink:href="#linearGradient4680"
       gradientUnits="userSpaceOnUse"
       x2="9"
       y1="-94.671997"
       x1="94.25" />
    <linearGradient
       id="linearGradient4742-3"
       y2="-30.438"
       xlink:href="#linearGradient4680"
       gradientUnits="userSpaceOnUse"
       x2="35.75"
       y1="-114.44"
       x1="50.75" />
    <linearGradient
       id="linearGradient4734-3"
       y2="-74.625"
       xlink:href="#linearGradient4680"
       gradientUnits="userSpaceOnUse"
       x2="115.25"
       y1="-163.12"
       x1="77.625" />
    <linearGradient
       id="linearGradient4726-9"
       y2="7.0625"
       xlink:href="#linearGradient4680"
       gradientUnits="userSpaceOnUse"
       x2="125.72"
       y1="-50.438"
       x1="56.5" />
    <linearGradient
       id="linearGradient4710-2"
       y2="-146.8"
       xlink:href="#linearGradient4680"
       gradientUnits="userSpaceOnUse"
       x2="180.75"
       y1="-163.3"
       x1="35" />
    <linearGradient
       id="linearGradient4718-4"
       y2="-41.609001"
       xlink:href="#linearGradient4680"
       gradientUnits="userSpaceOnUse"
       x2="179"
       y1="-141.11"
       x1="57" />
    <linearGradient
       id="linearGradient4694-4"
       y2="39.75"
       xlink:href="#linearGradient4680"
       gradientUnits="userSpaceOnUse"
       x2="208.25"
       y1="-26.5"
       x1="156" />
    <linearGradient
       id="linearGradient4702-4"
       y2="-77.296997"
       xlink:href="#linearGradient4680"
       gradientUnits="userSpaceOnUse"
       x2="235"
       y1="-169.3"
       x1="142.75" />
  </defs>
  <sodipodi:namedview
     id="base"
     pagecolor="#ffffff"
     bordercolor="#666666"
     borderopacity="1.0"
     inkscape:pageopacity="0.0"
     inkscape:pageshadow="2"
     inkscape:zoom="15.839192"
     inkscape:cx="15.027154"
     inkscape:cy="14.948075"
     inkscape:document-units="px"
     inkscape:current-layer="layer1"
     showgrid="false"
     fit-margin-top="0"
     fit-margin-left="0"
     fit-margin-right="0"
     fit-margin-bottom="0"
     inkscape:window-width="1600"
     inkscape:window-height="843"
     inkscape:window-x="0"
     inkscape:window-y="595"
     inkscape:window-maximized="1"
     units="px" />
  <metadata
     id="metadata7">
    <rdf:RDF>
      <cc:Work
         rdf:about="">
        <dc:format>image/svg+xml</dc:format>
        <dc:type
           rdf:resource="http://purl.org/dc/dcmitype/StillImage" />
        <dc:title></dc:title>
      </cc:Work>
    </rdf:RDF>
  </metadata>
  <g
     inkscape:label="Calque 1"
     inkscape:groupmode="layer"
     id="layer1"
     transform="translate(-37.512721,-494.32995)">
    <g
       id="layer4"
       transform="matrix(0.14159292,0,0,0.14159292,36.238385,494.61604)">
      <path
         id="path3834-9"
         d="m 9,2.25 c 0,0 7.5,13 11.75,27.75 C 25,44.75 27,55.5 27,55.5 c 0,0 -5.5,12.75 -8.25,24.75 -2.75,12 -5.75,23 -5.75,23 0,0 5.75,16 9.25,30 3.5,14 3.75,24.25 3.75,24.25 0,0 -4,10.25 -7.5,24.25 -3.5,14 -5,30.75 -5,30.75 0,0 9.25,-2 28.5,1.25 19.25,3.25 32.25,6 32.25,6 0,0 12.75,-2.75 24,-6.25 11.25,-3.5 16.25,-6.5 16.25,-6.5 0,0 5.5,0.5 22.5,6.25 17,5.75 29.25,8.5 29.25,8.5 0,0 13,-2.75 26,-5.75 13,-3 26.5,-8 26.5,-8 0,0 -0.75,-5 4.25,-24.5 5,-19.5 8.75,-28 8.75,-28 0,0 -0.5,-4.5 -3.75,-19.75 C 224.75,120.5 218,106 218,106 c 0,0 1.75,-10.5 6.75,-23.75 C 229.75,69 235,55.5 235,55.5 c 0,0 -4.75,-15.25 -7.5,-29.75 C 224.75,11.25 219.25,0 219.25,0 c 0,0 -24.25,9 -31.75,10.5 -7.5,1.5 -21,5.25 -21,5.25 0,0 -9.75,-4.25 -22,-8.5 -12.25,-4.25 -29.75,-5.5 -29.75,-5.5 0,0 -3.25,3.5 -22,8 -18.75,4.5 -27.5,5.75 -27.5,5.75 0,0 -18.5,-9 -31.5,-11.5 C 20.75,1.5 9.75,2 9,2.25 Z"
         inkscape:connector-curvature="0"
         style="fill:#ceeeab" />
      <g
         id="g5438"
         transform="translate(0,-10)"
         clip-path="url(#clipPath5466)">
        <path
           id="path5436"
           d="m 110.75,5.5 -4.25,7 c -0.75,9 -2.25,13.75 -8.5,16.5 -6.25,2.75 -12.25,3.5 -11,7.5 1.25,4 13,9.25 14.25,13 1.25,3.75 8.25,1.75 11,7 2.75,5.25 2,15.25 -3.75,17.25 -5.75,2 -17.5,0.5 -20.25,9.5 -2.75,9 -4.75,10.5 -9,12.75 -4.25,2.25 -7.25,10.5 -3.5,16.5 3.75,6 12.25,-1.25 15,-6.5 C 93.5,100.75 98,97.25 98,97.25 l 23.75,0 59,-1.75 3.25,-3.75 c 0,0 3.25,4 2.75,8.75 -0.5,4.75 -3.75,14.75 0.25,17.25 4,2.5 19.5,-2 24,-7 4.5,-5 -4.75,-28.25 -10.5,-29.5 -5.75,-1.25 -18.5,-1.75 -17,-7 1.5,-5.25 11.75,4.5 17.25,3.25 5.5,-1.25 16.75,-21 12,-25.25 C 208,48 188.5,47 187,44.25 c -1.5,-2.75 21,-8 22.25,-11 1.25,-3 -2.5,-7.25 -6.25,-8.5 C 199.25,23.5 189,41 182,40.5 175,40 162,46.25 164.75,52 c 2.75,5.75 -6,11 -14.5,6.5 -8.5,-4.5 -24.75,-13 -21.75,-24 3,-11 21.5,-18.75 21.5,-18.75 L 110.75,5.5 Z M 97.188,112.72 c -1.595,0.15 -4.469,4.69 -4.938,7.03 -0.5,2.5 -3.25,6.75 -3.5,12.25 -0.25,5.5 4.75,6.75 8.75,6.5 4,-0.25 2.75,-6.75 2,-15 -0.25,0 -0.5,-10.25 -2,-10.75 -0.094,-0.03 -0.206,-0.04 -0.312,-0.03 z m 92.722,51.66 c -6.34,0.29 -6.63,7.46 -7.41,8.87 -1.25,2.25 2.25,13.75 2,18 -0.25,4.25 -4.75,5.25 -9.5,9.75 -4.75,4.5 0.5,16 11.25,31 l 44.75,1.25 -1,-35 c 0,0 4.75,-4.25 -20.75,-24.25 -9.56,-7.5 -15.54,-9.8 -19.34,-9.62 z M 39.94,180.91 c -4.03,-0.11 -8.282,5.71 -9.688,7.59 -1.5,2 -6.25,5 -17,9.5 l -14.5,34.25 53,4.25 c 0,0 1.75,-11 -4.25,-15.75 -6,-4.75 -17.25,-5.75 -18.25,-13.25 -1,-7.5 9.25,-10 13.75,-14.25 4.5,-4.25 2,-11.25 -2.25,-12.25 -0.266,-0.06 -0.544,-0.09 -0.812,-0.09 z"
           inkscape:connector-curvature="0"
           style="fill:#a6dd8b" />
      </g>
      <path
         id="path5280"
         d="m 158.53,75.344 c -4.76,-0.015 -9.03,0.968 -11.53,3.156 -8,7 -35,0.75 -48.5,7 -13.5,6.25 -13.25,38 -14.75,44.5 -1.5,6.5 -17.5,20.75 -20,23.5 -2.5,2.75 -13.25,7.25 -19.5,8.5 -6.25,1.25 -12.75,7.25 -15.5,11 -2.021,2.76 -7.406,6.45 -10.125,8.22 -0.046,0.18 -0.079,0.35 -0.125,0.53 -0.134,0.53 -0.247,1.08 -0.375,1.63 4.98,-1.61 11.18,-8.18 16.625,-13.63 6.25,-6.25 20,-7.75 27.75,-11.5 7.75,-3.75 14.25,-19.75 26.5,-23.75 12.25,-4 21.25,11.75 24.25,18.5 3,6.75 1.75,12.75 3.75,17 2,4.25 11,11.75 11.5,13.5 0.5,1.75 -5,6.5 -6.25,8.5 -1.25,2 -10.5,7 -11.75,8.75 -0.97,1.35 -1.92,6.77 -2.31,9.22 0.41,-0.17 0.75,-0.31 1.12,-0.47 0.49,-2.53 1.52,-7.08 2.94,-8.5 2,-2 11.25,-4.5 12.5,-8.5 1.25,-4 7,-6.5 7,-6.5 0,0 2.75,4 16,14 8.83,6.67 12.76,15.53 14.41,20.72 0.67,0.17 1.53,0.41 2.03,0.53 -1.22,-4.32 -4.84,-16.24 -8.94,-20.75 -5,-5.5 -18.5,-10.75 -22.75,-22 -4.25,-11.25 -24.5,-34.25 -17.5,-40.25 7,-6 16.5,-4 28.5,7.5 12,11.5 46.25,5.75 57.75,3.75 9.95,-1.73 20.83,14.88 23.91,26.03 0.59,-2.09 1.12,-4 1.65,-5.75 -1.74,-1.92 -3.69,-4.62 -5.31,-8.28 -3.75,-8.5 -12,-13.25 -12,-13.25 0,0 8.75,-5 14.75,-7.75 1.62,-0.74 3.01,-1.68 4.19,-2.66 -0.16,-0.77 -0.26,-1.25 -0.44,-2.09 -0.03,-0.15 -0.06,-0.29 -0.09,-0.44 -4.77,5.56 -19.24,9.62 -21.66,10.94 -2.75,1.5 -18.25,3 -35.75,4.5 -17.5,1.5 -26.75,-7.5 -34.25,-14.75 -7.5,-7.25 -13,-36 -3,-38 10,-2 20,13.75 30,17 10,3.25 21.5,-15.75 19.75,-27 -1.2,-7.734 -14,-12.625 -24.47,-12.656 z m -53.34,13.281 c 1.27,0.001 5.86,1.594 6.56,2.375 2.25,2.5 2,7.25 0,8 -2,0.75 -12.75,8 -10.5,14.25 2.25,6.25 1.75,18 -3.5,18 -5.25,0 -8,0 -10,-2.5 -2,-2.5 -2,-12 0,-19.75 2,-7.75 3.5,-15 8,-18.25 3.094,-2.234 6.63,-2.128 9.44,-2.125 z m 13.59,73.095 c 0.2,0.01 1.91,3.51 4.72,7.03 3,3.75 3.25,8.25 3.25,8.25 0,0 -4.25,-4.75 -6,-8 -1.75,-3.25 -2,-7.25 -2,-7.25 0,-0.03 0.02,-0.03 0.03,-0.03 z"
         inkscape:connector-curvature="0"
         style="fill:#aac3e7" />
      <path
         id="path5319"
         d="M 122.75,62.25 C 129,62.75 135,60 133.5,55.75 132,51.5 121,48.5 120.25,52.75 c -0.75,4.25 2,10.5 2.5,9.5 z"
         inkscape:connector-curvature="0"
         style="opacity:0.38696002;fill:none;stroke:#6d7f42;stroke-linecap:round;stroke-linejoin:round" />
      <path
         id="path5321"
         d="m 108.75,46.75 c -8.5,-5.5 -8.5,-7.25 -7,-8 1.5,-0.75 10.25,5 12.75,8 2.5,3 -2.25,2 -5.75,0 z"
         inkscape:connector-curvature="0"
         style="opacity:0.38696002;fill:none;stroke:#6d7f42;stroke-linecap:round;stroke-linejoin:round" />
      <g
         id="g5373"
         clip-path="url(#clipPath5383)"
         transform="translate(0,-10)"
         style="fill:none;stroke:#6d7f42">
        <path
           id="path5323"
           d="M 15.75,151.25 C 48.75,148.75 54,147.75 52,141 50,134.25 43.25,117.5 29,118.5 14.75,119.5 6.25,111.75 6.25,111.75"
           inkscape:connector-curvature="0"
           style="opacity:0.38696002;stroke-linecap:round;stroke-linejoin:round" />
        <path
           id="path5311"
           d="m 17.5,177.25 c 18.25,-10 28.75,-8.5 35,-11.5 6.25,-3 13.25,-5.75 15.75,-9.5 2.5,-3.75 5.75,-11.5 5.75,-18 0,-6.5 -3.5,-36 3.25,-43.5 6.75,-7.5 17.25,-26 26,-23.25 8.75,2.75 12.25,9.75 22,9.5 9.75,-0.25 21.75,-4 24.25,-12.25 2.5,-8.25 -15.75,-16 -16,-23 -0.25,-7 5.5,-14.25 20.25,-17 14.75,-2.75 23.5,-11.5 23.5,-11.5"
           inkscape:connector-curvature="0"
           style="opacity:0.38696002" />
        <path
           id="path5313"
           d="m 14.5,161 c 15.25,-1.5 22.25,3.5 31.5,1.75 9.25,-1.75 13.25,-3 17.75,-5.75 4.5,-2.75 6,-3.75 6.25,-6.5 0.25,-2.75 1,-12.5 -3,-22 C 63,119 54.5,97 58.75,89.75 63,82.5 64,68.25 74.5,65.25 85,62.25 95.5,59 102.25,64 c 6.75,5 12.75,14.25 20,14.5 7.25,0.25 11.75,-1.5 14.5,-4.5 2.75,-3 4.5,-10.25 1.75,-13.75 -2.75,-3.5 -15.5,-5.5 -17.25,-9.5 -1.75,-4 -10.75,-17 -0.25,-26.75 10.5,-9.75 36.25,-8.25 36.25,-8.25"
           inkscape:connector-curvature="0"
           style="opacity:0.38696002;stroke-linecap:round;stroke-linejoin:round" />
        <path
           id="path5315"
           d="m 21.25,159 c 13.75,1 21.5,4.25 33.5,-0.5 12,-4.75 13.5,-5.25 13.75,-8.75 0.25,-3.5 -0.25,-15.75 -3,-20 C 62.75,125.5 52.5,116 49.75,105.5 47,95 50,64.5 58.25,57.25 66.5,50 90.25,50 95.75,46.75 101.25,43.5 101,30 108.75,22.25 116.5,14.5 135.75,10 135.75,10"
           inkscape:connector-curvature="0"
           style="opacity:0.38696002;stroke-linecap:round;stroke-linejoin:round" />
        <path
           id="path5317"
           d="m 190,18.5 c 11.75,5 39,9.75 47.25,40.25"
           inkscape:connector-curvature="0"
           style="opacity:0.38696002;stroke-linecap:round;stroke-linejoin:round" />
        <path
           id="path5325"
           d="m 9.75,214 c 19,-12.5 36,-1.25 49,-4 13,-2.75 38.25,-37.25 46,-37 7.75,0.25 5.5,-11.75 8.5,-13.25 3,-1.5 5.5,6 11.75,8 6.25,2 24.5,-2.75 23.5,-5.75 -1,-3 -7,-7.75 -5.5,-8.5 1.5,-0.75 8.5,5 12.75,3.5 4.25,-1.5 43.75,-1 48.5,-13.5 C 209,131 225.75,130 225.75,130"
           inkscape:connector-curvature="0"
           style="opacity:0.38696002;stroke-linecap:round;stroke-linejoin:round" />
        <path
           id="path5327"
           d="m 77.5,233.5 c 13.5,-11.5 23.25,-25 28.5,-27 5.25,-2 12.75,-3.75 15.75,-8 3,-4.25 2.5,-10.75 5.25,-12 2.75,-1.25 3.75,5.75 8.75,6 5,0.25 36.75,-5 42.75,-11.75 6,-6.75 32.25,-12.5 32.5,-14.5 0.25,-2 -1,-4.75 0.25,-5.5 1.25,-0.75 24.75,-6 24.75,-6"
           inkscape:connector-curvature="0"
           style="opacity:0.38696002;stroke-linecap:round;stroke-linejoin:round" />
        <path
           id="path5329"
           d="m 168.75,236 c 9,-13.75 20.5,-41 29.5,-42 9,-1 10.25,-2.5 12.5,-4.25 2.25,-1.75 17,2.25 17,2.25"
           inkscape:connector-curvature="0"
           style="opacity:0.38696002;stroke-linecap:round;stroke-linejoin:round" />
      </g>
      <g
         id="g5400"
         clip-path="url(#clipPath5426)"
         transform="translate(0,-10)"
         style="fill:none;stroke:#d38484;stroke-width:2;stroke-linecap:round">
        <path
           id="path5387"
           d="m 57.75,20 -8.5,28.25 18,6.25 L 75,90.75 54,113 l 9,10.5 -12,11.5 0.5,4.5 20.25,24.5 14,-6.75 20.5,18.5 -10.5,28.25 10.25,8.5 -2.75,13"
           inkscape:connector-curvature="0" />
        <path
           id="path5389"
           d="m 105.75,212.25 12.5,-27.75 11,-7 27.5,15.75 20.5,-3.75 -0.25,-15.75 -10.25,-6 12.75,-26.25 5.75,-3.75 38.75,-10"
           inkscape:connector-curvature="0" />
      </g>
    </g>
    <path
       inkscape:connector-curvature="0"
       style="opacity:0.03913;fill:url(#linearGradient5168)"
       d="m 37.512721,494.93462 c 0,0 1.061947,1.84071 1.663717,3.92921 0.60177,2.08849 0.884956,3.61062 0.884956,3.61062 0,0 -0.778761,1.80531 -1.168142,3.50442 -0.389381,1.69912 -0.814159,3.25664 -0.814159,3.25664 0,0 0.814159,2.26549 1.309734,4.24779 0.495575,1.9823 0.530974,3.43362 0.530974,3.43362 0,0 -0.566372,1.45133 -1.061947,3.43363 -0.495575,1.9823 -0.707965,4.35399 -0.707965,4.35399 0,0 1.309735,-0.28319 4.035398,0.17699 2.725664,0.46017 4.566372,0.84955 4.566372,0.84955 0,0 1.80531,-0.38938 3.39823,-0.88495 1.59292,-0.49558 2.300885,-0.92036 2.300885,-0.92036 0,0 0.778761,0.0708 3.185841,0.88496 2.407079,0.81416 4.141593,1.20354 4.141593,1.20354 0,0 1.840708,-0.38938 3.681416,-0.81416 1.840707,-0.42478 3.752212,-1.13274 3.752212,-1.13274 0,0 -0.106195,-0.70797 0.60177,-3.46903 0.707964,-2.76106 1.238938,-3.9646 1.238938,-3.9646 0,0 -0.0708,-0.63717 -0.530974,-2.79646 -0.460177,-2.15929 -1.415929,-4.21239 -1.415929,-4.21239 0,0 0.247788,-1.48673 0.955752,-3.36283 0.707965,-1.87611 1.451328,-3.78761 1.451328,-3.78761 0,0 -0.672567,-2.1593 -1.061947,-4.21239 -0.389381,-2.0531 -1.168142,-3.64602 -1.168142,-3.64602 0,0 -3.433628,1.27434 -4.495575,1.48673 -1.061947,0.21238 -2.973451,0.74336 -2.973451,0.74336 0,0 -1.380531,-0.60177 -3.115044,-1.20354 -1.734514,-0.60177 -4.21239,-0.77876 -4.21239,-0.77876 0,0 -0.460177,0.49557 -3.115044,1.13274 -2.654867,0.63717 -3.893805,0.81416 -3.893805,0.81416 0,0 -2.619469,-1.27434 -4.460177,-1.62832 -1.840708,-0.35398 -3.39823,-0.28318 -3.504425,-0.24779 z"
       id="path3834-49" />
    <g
       id="layer3"
       transform="matrix(0.14159292,0,0,0.14159292,36.238385,494.61604)">
      <g
         id="g4808"
         transform="translate(0,182)"
         style="opacity:0.26957003">
        <path
           id="path3834-4-9"
           d="m 219.25,-182 c 0,0 -24.25,9 -31.75,10.5 -7.5,1.5 -21,5.25 -21,5.25 4.92,-1.36 11.44,45.39 14.25,52.25 l -0.06,0.28 c 11.81,-4.07 51.21,-4.77 54.31,-12.78 0,0 -4.75,-15.25 -7.5,-29.75 -2.75,-14.5 -8.25,-25.75 -8.25,-25.75 z"
           inkscape:connector-curvature="0"
           style="fill:url(#linearGradient4806-9)" />
        <path
           id="path3834-7-2-4-9"
           d="m 27,-126.5 c 0,0 -5.5,12.75 -8.25,24.75 -2.75,12 -5.75,23 -5.75,23 L 63.625,-62.469 79.406,-121.38 27,-126.5 Z"
           inkscape:connector-curvature="0"
           style="fill:url(#linearGradient4790-3)" />
        <path
           id="path3834-7-26-9-7"
           d="m 26,-24.5 c 0,0 -4,10.25 -7.5,24.25 -3.5,14 -5,30.75 -5,30.75 0,0 0.147,-0.045 0.438,-0.094 2.033,-0.338 11.218,-1.5 28.062,1.344 19.25,3.25 32.25,6 32.25,6 l 1.469,-52.5 -0.75,0.125 L 26,-24.5 Z"
           inkscape:connector-curvature="0"
           style="fill:url(#linearGradient4758-2)" />
        <path
           id="path3834-4-9-6"
           d="m 114.75,-180.25 c 0,0 -3.25,3.5 -22,8 -18.75,4.5 -27.5,5.75 -27.5,5.75 5.182,14.7 12.03,29.27 14.25,44.75 l -0.094,0.31 48.034,-3.94 1.12,0.26 c -3.36,-13.33 -7.79,-54.6 -13.81,-55.13 z"
           inkscape:connector-curvature="0"
           style="fill:url(#linearGradient4750-9)" />
        <path
           id="path3834-7-26-0-0-9"
           d="M 117.59,-78.094 63.969,-62.375 63.625,-62.469 63.5,-62 l 12.25,46.5 -0.031,0.75 49.471,-8.875 0.53,0.187 0.03,-0.062 -8.25,-54.25 0.09,-0.344 z"
           inkscape:connector-curvature="0"
           style="fill:url(#linearGradient4782-5)" />
        <path
           id="path3834-7-2-4-3"
           d="m 128.56,-125.12 c 0.24,0.92 0.47,1.74 0.69,2.37 l -11.66,44.656 0.1,-0.031 51.81,17.375 11.19,-52.97 c -0.36,0.12 -0.7,0.25 -1,0.38 l -51.13,-11.78 z"
           inkscape:connector-curvature="0"
           style="fill:url(#linearGradient4798-4)" />
        <path
           id="path3834-7-26-9-85"
           d="M 125.53,-23.5 114.5,25 c 0,0 5.5,0.5 22.5,6.25 2.12,0.719 4.16,1.406 6.12,2.031 1.97,0.626 3.86,1.186 5.63,1.719 10.62,3.199 17.5,4.75 17.5,4.75 l 12.72,-45.406 c -0.51,0.1824 -1.02,0.3808 -1.53,0.5622 l -51.91,-18.406 z"
           inkscape:connector-curvature="0"
           style="fill:url(#linearGradient4766-3)" />
        <path
           id="path3834-7-26-0-0-3"
           d="m 218,-76 c -15.67,6.288 -31.7,11.15 -48.06,15.406 l -0.44,-0.156 9.5,55 -0.03,0.0937 c 17.84,-6.3597 35.38,-13.387 52.78,-20.844 0,0 -0.5,-4.5 -3.75,-19.75 -3.25,-15.25 -10,-29.75 -10,-29.75 z"
           inkscape:connector-curvature="0"
           style="fill:url(#linearGradient4965)" />
      </g>
      <g
         id="g4818"
         transform="translate(0,182)"
         style="opacity:0.04347797">
        <path
           id="path3834-4-9-1"
           d="m 13.719,-179.97 c -1.106,0 -1.972,0.03 -2.719,0.06 -0.445,0.02 -0.855,0.04 -1.1562,0.07 -0.0293,0 -0.066,-0.01 -0.0938,0 -0.3979,0.03 -0.6562,0.06 -0.75,0.09 0,0 7.5,13 11.75,27.75 4.25,14.75 6.25,25.5 6.25,25.5 l 51.469,5.12 0.937,-0.06 0.094,-0.31 c -2.22,-15.48 -9.068,-30.05 -14.25,-44.75 0,0 -18.5,-9 -31.5,-11.5 -1.018,-0.2 -2.01,-0.37 -3,-0.53 -0.596,-0.1 -1.167,-0.2 -1.75,-0.28 -0.237,-0.04 -0.453,-0.06 -0.688,-0.1 -1.306,-0.18 -2.588,-0.34 -3.812,-0.46 -0.735,-0.08 -1.395,-0.13 -2.094,-0.19 -0.685,-0.06 -1.353,-0.11 -2,-0.16 -0.992,-0.07 -1.89,-0.12 -2.781,-0.15 -1.456,-0.07 -2.769,-0.1 -3.906,-0.1 z"
           inkscape:connector-curvature="0"
           style="fill:url(#linearGradient4686-3)" />
        <path
           id="path3834-7-26-0-0-7"
           d="m 13,-78.75 c 0,0 5.75,16 9.25,30 3.5,14 3.75,24.25 3.75,24.25 l 48.969,9.875 0.75,-0.125 L 75.75,-15.5 63.5,-62 63.625,-62.469 13,-78.75 Z"
           inkscape:connector-curvature="0"
           style="fill:url(#linearGradient4742-3)" />
        <path
           id="path3834-7-2-4-6"
           d="m 127.44,-125.38 -47.971,4 -0.063,0 -15.781,58.911 0.344,0.094 53.621,-15.719 11.66,-44.656 c -0.22,-0.63 -0.45,-1.45 -0.69,-2.37 l -1.12,-0.26 z"
           inkscape:connector-curvature="0"
           style="fill:url(#linearGradient4734-3)" />
        <path
           id="path3834-7-26-9-8"
           d="m 125.19,-23.625 -49.471,8.875 -1.469,52.5 c 0,0 12.75,-2.75 24,-6.25 C 109.5,28 114.5,25 114.5,25 l 11.22,-48.438 -0.53,-0.187 z"
           inkscape:connector-curvature="0"
           style="fill:url(#linearGradient4726-9)" />
        <path
           id="path3834-4-9-2"
           d="m 114.75,-180.25 c 6.02,0.53 10.45,41.8 13.81,55.13 l 51.13,11.78 c 0.3,-0.13 0.64,-0.26 1,-0.38 l 0.06,-0.28 c -2.81,-6.86 -9.33,-53.61 -14.25,-52.25 0,0 -0.61,-0.25 -1.72,-0.72 -3.32,-1.39 -11.09,-4.59 -20.28,-7.78 -12.25,-4.25 -29.75,-5.5 -29.75,-5.5 z"
           inkscape:connector-curvature="0"
           style="fill:url(#linearGradient4710-2)" />
        <path
           id="path3834-7-26-0-0-0"
           d="m 117.69,-78.125 -0.1,0.031 -0.09,0.344 8.25,53.25 -0.22,1 51.91,18.406 c 0.51,-0.1813 1.02,-0.3797 1.53,-0.5623 L 179,-5.75 l -9.5,-55 -51.81,-17.375 z"
           inkscape:connector-curvature="0"
           style="fill:url(#linearGradient4718-4)" />
        <path
           id="path3834-7-26-9-9"
           d="m 231.75,-26.5 c -17.4,7.457 -34.94,14.484 -52.78,20.844 L 166.25,39.75 c 0,0 13,-2.75 26,-5.75 13,-3 26.5,-8 26.5,-8 0,0 -0.75,-5 4.25,-24.5 5,-19.5 8.75,-28 8.75,-28 z"
           inkscape:connector-curvature="0"
           style="fill:url(#linearGradient4694-4)" />
        <path
           id="path3834-7-2-4-5"
           d="m 235,-126.5 c -3.1,8.01 -42.5,8.71 -54.31,12.78 l -11.19,52.97 0.44,0.156 C 186.3,-64.85 202.33,-69.712 218,-76 c 0,0 1.75,-10.5 6.75,-23.75 5,-13.25 10.25,-26.75 10.25,-26.75 z"
           inkscape:connector-curvature="0"
           style="fill:url(#linearGradient4702-4)" />
      </g>
    </g>
    <g
       id="g4174"
       transform="matrix(0.25894625,0,0,0.25894625,53.233253,510.46287)"
       style="opacity:0.6">
      <g
         id="g4138"
         style="fill:#ffffff;stroke:#000000;stroke-width:4;stroke-linejoin:miter">
        <path
           id="path4140"
           d="m 0,-48 41.6,24 0,48 L 0,48 -41.6,24 l 0,-48 z"
           inkscape:connector-curvature="0" />
        <line
           id="line4142"
           y2="-24"
           x2="41.599998"
           y1="0"
           x1="0" />
        <line
           id="line4144"
           y2="48"
           x2="0"
           y1="0"
           x1="0" />
        <line
           id="line4146"
           y2="-24"
           x2="-41.599998"
           y1="0"
           x1="0" />
      </g>
      <g
         id="g4148"
         style="fill:#000000;stroke:none">
        <circle
           id="circle4150"
           r="5"
           cy="12"
           cx="-20.799999" />
        <circle
           id="circle4152"
           r="5"
           cy="-24"
           cx="-20.799999" />
        <circle
           id="circle4154"
           r="5"
           cy="-24"
           cx="0" />
        <circle
           id="circle4156"
           r="5"
           cy="-24"
           cx="20.799999" />
        <circle
           id="circle4158"
           r="5"
           cy="12"
           cx="20.799999" />
        <circle
           id="circle4160"
           r="5"
           cy="6"
           cx="10.4" />
        <circle
           id="circle4162"
           r="5"
           cy="18"
           cx="31.200001" />
        <circle
           id="circle4164"
           r="5"
           cy="-6"
           cx="31.200001" />
        <circle
           id="circle4166"
           r="5"
           cy="30"
           cx="10.4" />
      </g>
    </g>
  </g>
</svg>
