<?xml version="1.0" encoding="UTF-8" standalone="no"?>
<!-- Created with Inkscape (http://www.inkscape.org/) -->

<svg
   xmlns:dc="http://purl.org/dc/elements/1.1/"
   xmlns:cc="http://creativecommons.org/ns#"
   xmlns:rdf="http://www.w3.org/1999/02/22-rdf-syntax-ns#"
   xmlns:svg="http://www.w3.org/2000/svg"
   xmlns="http://www.w3.org/2000/svg"
   xmlns:xlink="http://www.w3.org/1999/xlink"
   xmlns:sodipodi="http://sodipodi.sourceforge.net/DTD/sodipodi-0.dtd"
   xmlns:inkscape="http://www.inkscape.org/namespaces/inkscape"
   width="351.30365mm"
   height="76.143227mm"
   viewBox="0 0 1244.7767 269.79884"
   id="svg2"
   version="1.1"
   inkscape:version="0.91 r13725"
   sodipodi:docname="openrandommap.svg"
   inkscape:export-filename="/home/adrien/Documents/OpenStreetMap/Propagande/OpenRandomMap/logo.png"
   inkscape:export-xdpi="50.037281"
   inkscape:export-ydpi="50.037281">
  <defs
     id="defs4">
    <linearGradient
       id="linearGradient8735"
       y2="4.302"
       gradientUnits="userSpaceOnUse"
       x2="122"
       y1="245.45"
       x1="122">
      <stop
         id="stop8731"
         offset="0" />
      <stop
         id="stop8733"
         stop-opacity="0"
         offset="1" />
    </linearGradient>
    <filter
       id="filter8725">
      <feGaussianBlur
         id="feGaussianBlur8727"
         stdDeviation="4.4575" />
    </filter>
    <clipPath
       id="clipPath5466"
       clipPathUnits="userSpaceOnUse">
      <path
         style="fill:#ceeeab"
         inkscape:connector-curvature="0"
         id="path5468"
         d="m 9,12.25 c 0,0 7.5,13 11.75,27.75 C 25,54.75 27,65.5 27,65.5 c 0,0 -5.5,12.75 -8.25,24.75 -2.75,12 -5.75,23 -5.75,23 0,0 5.75,16 9.25,30 3.5,14 3.75,24.25 3.75,24.25 0,0 -4,10.25 -7.5,24.25 -3.5,14 -5,30.75 -5,30.75 0,0 9.25,-2 28.5,1.25 19.25,3.25 32.25,6 32.25,6 0,0 12.75,-2.75 24,-6.25 11.25,-3.5 16.25,-6.5 16.25,-6.5 0,0 5.5,0.5 22.5,6.25 17,5.75 29.25,8.5 29.25,8.5 0,0 13,-2.75 26,-5.75 13,-3 26.5,-8 26.5,-8 0,0 -0.75,-5 4.25,-24.5 5,-19.5 8.75,-28 8.75,-28 0,0 -0.5,-4.5 -3.75,-19.75 C 224.75,130.5 218,116 218,116 c 0,0 1.75,-10.5 6.75,-23.75 C 229.75,79 235,65.5 235,65.5 c 0,0 -4.75,-15.25 -7.5,-29.75 C 224.75,21.25 219.25,10 219.25,10 c 0,0 -24.25,9 -31.75,10.5 -7.5,1.5 -21,5.25 -21,5.25 0,0 -9.75,-4.25 -22,-8.5 -12.25,-4.25 -29.75,-5.5 -29.75,-5.5 0,0 -3.25,3.5 -22,8 -18.75,4.5 -27.5,5.75 -27.5,5.75 0,0 -18.5,-9 -31.5,-11.5 -13,-2.5 -24,-2 -24.75,-1.75 z" />
    </clipPath>
    <clipPath
       id="clipPath5383"
       clipPathUnits="userSpaceOnUse">
      <path
         style="fill:#ceeeab"
         inkscape:connector-curvature="0"
         id="path5385"
         d="m 9,12.25 c 0,0 7.5,13 11.75,27.75 C 25,54.75 27,65.5 27,65.5 c 0,0 -5.5,12.75 -8.25,24.75 -2.75,12 -5.75,23 -5.75,23 0,0 5.75,16 9.25,30 3.5,14 3.75,24.25 3.75,24.25 0,0 -4,10.25 -7.5,24.25 -3.5,14 -5,30.75 -5,30.75 0,0 9.25,-2 28.5,1.25 19.25,3.25 32.25,6 32.25,6 0,0 12.75,-2.75 24,-6.25 11.25,-3.5 16.25,-6.5 16.25,-6.5 0,0 5.5,0.5 22.5,6.25 17,5.75 29.25,8.5 29.25,8.5 0,0 13,-2.75 26,-5.75 13,-3 26.5,-8 26.5,-8 0,0 -0.75,-5 4.25,-24.5 5,-19.5 8.75,-28 8.75,-28 0,0 -0.5,-4.5 -3.75,-19.75 C 224.75,130.5 218,116 218,116 c 0,0 1.75,-10.5 6.75,-23.75 C 229.75,79 235,65.5 235,65.5 c 0,0 -4.75,-15.25 -7.5,-29.75 C 224.75,21.25 219.25,10 219.25,10 c 0,0 -24.25,9 -31.75,10.5 -7.5,1.5 -21,5.25 -21,5.25 0,0 -9.75,-4.25 -22,-8.5 -12.25,-4.25 -29.75,-5.5 -29.75,-5.5 0,0 -3.25,3.5 -22,8 -18.75,4.5 -27.5,5.75 -27.5,5.75 0,0 -18.5,-9 -31.5,-11.5 -13,-2.5 -24,-2 -24.75,-1.75 z" />
    </clipPath>
    <clipPath
       id="clipPath5426"
       clipPathUnits="userSpaceOnUse">
      <path
         style="fill:#ceeeab"
         inkscape:connector-curvature="0"
         id="path5428"
         d="m 9,12.25 c 0,0 7.5,13 11.75,27.75 C 25,54.75 27,65.5 27,65.5 c 0,0 -5.5,12.75 -8.25,24.75 -2.75,12 -5.75,23 -5.75,23 0,0 5.75,16 9.25,30 3.5,14 3.75,24.25 3.75,24.25 0,0 -4,10.25 -7.5,24.25 -3.5,14 -5,30.75 -5,30.75 0,0 9.25,-2 28.5,1.25 19.25,3.25 32.25,6 32.25,6 0,0 12.75,-2.75 24,-6.25 11.25,-3.5 16.25,-6.5 16.25,-6.5 0,0 5.5,0.5 22.5,6.25 17,5.75 29.25,8.5 29.25,8.5 0,0 13,-2.75 26,-5.75 13,-3 26.5,-8 26.5,-8 0,0 -0.75,-5 4.25,-24.5 5,-19.5 8.75,-28 8.75,-28 0,0 -0.5,-4.5 -3.75,-19.75 C 224.75,130.5 218,116 218,116 c 0,0 1.75,-10.5 6.75,-23.75 C 229.75,79 235,65.5 235,65.5 c 0,0 -4.75,-15.25 -7.5,-29.75 C 224.75,21.25 219.25,10 219.25,10 c 0,0 -24.25,9 -31.75,10.5 -7.5,1.5 -21,5.25 -21,5.25 0,0 -9.75,-4.25 -22,-8.5 -12.25,-4.25 -29.75,-5.5 -29.75,-5.5 0,0 -3.25,3.5 -22,8 -18.75,4.5 -27.5,5.75 -27.5,5.75 0,0 -18.5,-9 -31.5,-11.5 -13,-2.5 -24,-2 -24.75,-1.75 z" />
    </clipPath>
    <linearGradient
       id="linearGradient5168"
       y2="-213.25"
       xlink:href="#linearGradient4680"
       gradientUnits="userSpaceOnUse"
       x2="9"
       gradientTransform="translate(0,182)"
       y1="72.064003"
       x1="210.17" />
    <linearGradient
       id="linearGradient4680">
      <stop
         id="stop4682"
         offset="0" />
      <stop
         id="stop4684"
         stop-opacity="0"
         offset="1" />
    </linearGradient>
    <linearGradient
       id="linearGradient4806-9"
       y2="-113.72"
       xlink:href="#linearGradient4744-9"
       gradientUnits="userSpaceOnUse"
       x2="166.5"
       y1="-161.36"
       x1="214.25" />
    <linearGradient
       id="linearGradient4744-9">
      <stop
         id="stop4746-3"
         stop-color="#fff"
         offset="0" />
      <stop
         id="stop4748-8"
         stop-color="#fff"
         stop-opacity="0"
         offset="1" />
    </linearGradient>
    <linearGradient
       id="linearGradient4790-3"
       y2="-62.469002"
       xlink:href="#linearGradient4744-9"
       gradientUnits="userSpaceOnUse"
       x2="57.655998"
       y1="-126.5"
       x1="53.25" />
    <linearGradient
       id="linearGradient4758-2"
       y2="-17.125"
       xlink:href="#linearGradient4744-9"
       gradientUnits="userSpaceOnUse"
       x2="75.719002"
       y1="6.625"
       x1="39.5" />
    <linearGradient
       id="linearGradient4750-9"
       y2="-121.44"
       xlink:href="#linearGradient4744-9"
       gradientUnits="userSpaceOnUse"
       x2="85.311996"
       y1="-162.34"
       x1="102" />
    <linearGradient
       id="linearGradient4782-5"
       y2="-14.75"
       xlink:href="#linearGradient4744-9"
       gradientUnits="userSpaceOnUse"
       x2="63.5"
       y1="-78.094002"
       x1="117.75" />
    <linearGradient
       id="linearGradient4798-4"
       y2="-60.75"
       xlink:href="#linearGradient4744-9"
       gradientUnits="userSpaceOnUse"
       x2="133.94"
       y1="-125.12"
       x1="180.69" />
    <linearGradient
       id="linearGradient4766-3"
       y2="33.375"
       xlink:href="#linearGradient4744-9"
       gradientUnits="userSpaceOnUse"
       x2="130.22"
       y1="-23.5"
       x1="170.75" />
    <linearGradient
       id="linearGradient4965"
       y2="-5.6563001"
       xlink:href="#linearGradient4744-9"
       gradientUnits="userSpaceOnUse"
       y1="-76"
       x2="181.75"
       x1="213.5" />
    <linearGradient
       id="linearGradient4686-3"
       y2="-179.97"
       xlink:href="#linearGradient4680"
       gradientUnits="userSpaceOnUse"
       x2="9"
       y1="-94.671997"
       x1="94.25" />
    <linearGradient
       id="linearGradient4742-3"
       y2="-30.438"
       xlink:href="#linearGradient4680"
       gradientUnits="userSpaceOnUse"
       x2="35.75"
       y1="-114.44"
       x1="50.75" />
    <linearGradient
       id="linearGradient4734-3"
       y2="-74.625"
       xlink:href="#linearGradient4680"
       gradientUnits="userSpaceOnUse"
       x2="115.25"
       y1="-163.12"
       x1="77.625" />
    <linearGradient
       id="linearGradient4726-9"
       y2="7.0625"
       xlink:href="#linearGradient4680"
       gradientUnits="userSpaceOnUse"
       x2="125.72"
       y1="-50.438"
       x1="56.5" />
    <linearGradient
       id="linearGradient4710-2"
       y2="-146.8"
       xlink:href="#linearGradient4680"
       gradientUnits="userSpaceOnUse"
       x2="180.75"
       y1="-163.3"
       x1="35" />
    <linearGradient
       id="linearGradient4718-4"
       y2="-41.609001"
       xlink:href="#linearGradient4680"
       gradientUnits="userSpaceOnUse"
       x2="179"
       y1="-141.11"
       x1="57" />
    <linearGradient
       id="linearGradient4694-4"
       y2="39.75"
       xlink:href="#linearGradient4680"
       gradientUnits="userSpaceOnUse"
       x2="208.25"
       y1="-26.5"
       x1="156" />
    <linearGradient
       id="linearGradient4702-4"
       y2="-77.296997"
       xlink:href="#linearGradient4680"
       gradientUnits="userSpaceOnUse"
       x2="235"
       y1="-169.3"
       x1="142.75" />
  </defs>
  <sodipodi:namedview
     id="base"
     pagecolor="#ffffff"
     bordercolor="#666666"
     borderopacity="1.0"
     inkscape:pageopacity="0.0"
     inkscape:pageshadow="2"
     inkscape:zoom="0.7"
     inkscape:cx="306.9259"
     inkscape:cy="144.84958"
     inkscape:document-units="px"
     inkscape:current-layer="layer1"
     showgrid="false"
     fit-margin-top="5"
     fit-margin-left="5"
     fit-margin-right="5"
     fit-margin-bottom="2"
     inkscape:window-width="1600"
     inkscape:window-height="843"
     inkscape:window-x="0"
     inkscape:window-y="595"
     inkscape:window-maximized="1" />
  <metadata
     id="metadata7">
    <rdf:RDF>
      <cc:Work
         rdf:about="">
        <dc:format>image/svg+xml</dc:format>
        <dc:type
           rdf:resource="http://purl.org/dc/dcmitype/StillImage" />
        <dc:title />
      </cc:Work>
    </rdf:RDF>
  </metadata>
  <g
     inkscape:label="Calque 1"
     inkscape:groupmode="layer"
     id="layer1"
     transform="translate(2.8038096,-286.8634)">
    <g
       transform="translate(28.512721,304.57994)"
       id="g4483">
      <path
         inkscape:connector-curvature="0"
         style="opacity:0.5;fill:url(#linearGradient8735);filter:url(#filter8725)"
         transform="matrix(1,0,0,0.84657,5.1756035e-6,27.66)"
         d="m 9,17.25 c 0,0 7.5,11 11.75,25.75 C 25,57.75 27,68.5 27,68.5 c 0,0 -5.5,12.75 -8.25,24.75 -2.75,12 -5.75,25 -5.75,25 0,0 5.75,16 9.25,30 3.5,14 3.75,22.25 3.75,22.25 0,0 -4,10.25 -7.5,24.25 -3.5,14 -5,30.75 -5,30.75 0,0 9.25,-2 28.5,1.25 19.25,3.25 32.25,6 32.25,6 0,0 12.75,-2.75 24,-6.25 11.25,-3.5 16.25,-6.5 16.25,-6.5 0,0 5.5,0.5 22.5,6.25 17,5.75 29.25,8.5 29.25,8.5 0,0 13,-2.75 26,-5.75 13,-3 26.5,-8 26.5,-8 0,0 -0.75,-5 4.25,-24.5 5,-19.5 8.75,-28 8.75,-28 0,0 -0.5,-2.5 -3.75,-17.75 C 224.75,135.5 218,121 218,121 c 0,0 1.75,-12.5 6.75,-25.75 C 229.75,82 235,68.5 235,68.5 c 0,0 -4.75,-15.25 -7.5,-29.75 C 224.75,24.25 219.25,15 219.25,15 c 0,0 -24.25,9 -31.75,10.5 -7.5,1.5 -21,5.25 -21,5.25 0,0 -9.75,-4.25 -22,-8.5 -12.25,-4.25 -29.75,-5.5 -29.75,-5.5 0,0 -3.25,3.5 -22,8 -18.75,4.5 -27.5,5.75 -27.5,5.75 0,0 -18.5,-9 -31.5,-11.5 -13,-2.5 -24,-2 -24.75,-1.75 z"
         id="path3834-49-7" />
      <g
         id="layer4">
        <path
           style="fill:#ceeeab"
           inkscape:connector-curvature="0"
           d="m 9,2.25 c 0,0 7.5,13 11.75,27.75 C 25,44.75 27,55.5 27,55.5 c 0,0 -5.5,12.75 -8.25,24.75 -2.75,12 -5.75,23 -5.75,23 0,0 5.75,16 9.25,30 3.5,14 3.75,24.25 3.75,24.25 0,0 -4,10.25 -7.5,24.25 -3.5,14 -5,30.75 -5,30.75 0,0 9.25,-2 28.5,1.25 19.25,3.25 32.25,6 32.25,6 0,0 12.75,-2.75 24,-6.25 11.25,-3.5 16.25,-6.5 16.25,-6.5 0,0 5.5,0.5 22.5,6.25 17,5.75 29.25,8.5 29.25,8.5 0,0 13,-2.75 26,-5.75 13,-3 26.5,-8 26.5,-8 0,0 -0.75,-5 4.25,-24.5 5,-19.5 8.75,-28 8.75,-28 0,0 -0.5,-4.5 -3.75,-19.75 C 224.75,120.5 218,106 218,106 c 0,0 1.75,-10.5 6.75,-23.75 C 229.75,69 235,55.5 235,55.5 c 0,0 -4.75,-15.25 -7.5,-29.75 C 224.75,11.25 219.25,0 219.25,0 c 0,0 -24.25,9 -31.75,10.5 -7.5,1.5 -21,5.25 -21,5.25 0,0 -9.75,-4.25 -22,-8.5 -12.25,-4.25 -29.75,-5.5 -29.75,-5.5 0,0 -3.25,3.5 -22,8 -18.75,4.5 -27.5,5.75 -27.5,5.75 0,0 -18.5,-9 -31.5,-11.5 C 20.75,1.5 9.75,2 9,2.25 Z"
           id="path3834-9" />
        <g
           clip-path="url(#clipPath5466)"
           transform="translate(0,-10)"
           id="g5438">
          <path
             style="fill:#a6dd8b"
             inkscape:connector-curvature="0"
             d="m 110.75,5.5 -4.25,7 c -0.75,9 -2.25,13.75 -8.5,16.5 -6.25,2.75 -12.25,3.5 -11,7.5 1.25,4 13,9.25 14.25,13 1.25,3.75 8.25,1.75 11,7 2.75,5.25 2,15.25 -3.75,17.25 -5.75,2 -17.5,0.5 -20.25,9.5 -2.75,9 -4.75,10.5 -9,12.75 -4.25,2.25 -7.25,10.5 -3.5,16.5 3.75,6 12.25,-1.25 15,-6.5 C 93.5,100.75 98,97.25 98,97.25 l 23.75,0 59,-1.75 3.25,-3.75 c 0,0 3.25,4 2.75,8.75 -0.5,4.75 -3.75,14.75 0.25,17.25 4,2.5 19.5,-2 24,-7 4.5,-5 -4.75,-28.25 -10.5,-29.5 -5.75,-1.25 -18.5,-1.75 -17,-7 1.5,-5.25 11.75,4.5 17.25,3.25 5.5,-1.25 16.75,-21 12,-25.25 C 208,48 188.5,47 187,44.25 c -1.5,-2.75 21,-8 22.25,-11 1.25,-3 -2.5,-7.25 -6.25,-8.5 C 199.25,23.5 189,41 182,40.5 175,40 162,46.25 164.75,52 c 2.75,5.75 -6,11 -14.5,6.5 -8.5,-4.5 -24.75,-13 -21.75,-24 3,-11 21.5,-18.75 21.5,-18.75 L 110.75,5.5 Z M 97.188,112.72 c -1.595,0.15 -4.469,4.69 -4.938,7.03 -0.5,2.5 -3.25,6.75 -3.5,12.25 -0.25,5.5 4.75,6.75 8.75,6.5 4,-0.25 2.75,-6.75 2,-15 -0.25,0 -0.5,-10.25 -2,-10.75 -0.094,-0.03 -0.206,-0.04 -0.312,-0.03 z m 92.722,51.66 c -6.34,0.29 -6.63,7.46 -7.41,8.87 -1.25,2.25 2.25,13.75 2,18 -0.25,4.25 -4.75,5.25 -9.5,9.75 -4.75,4.5 0.5,16 11.25,31 l 44.75,1.25 -1,-35 c 0,0 4.75,-4.25 -20.75,-24.25 -9.56,-7.5 -15.54,-9.8 -19.34,-9.62 z M 39.94,180.91 c -4.03,-0.11 -8.282,5.71 -9.688,7.59 -1.5,2 -6.25,5 -17,9.5 l -14.5,34.25 53,4.25 c 0,0 1.75,-11 -4.25,-15.75 -6,-4.75 -17.25,-5.75 -18.25,-13.25 -1,-7.5 9.25,-10 13.75,-14.25 4.5,-4.25 2,-11.25 -2.25,-12.25 -0.266,-0.06 -0.544,-0.09 -0.812,-0.09 z"
             id="path5436" />
        </g>
        <path
           style="fill:#aac3e7"
           inkscape:connector-curvature="0"
           d="m 158.53,75.344 c -4.76,-0.015 -9.03,0.968 -11.53,3.156 -8,7 -35,0.75 -48.5,7 -13.5,6.25 -13.25,38 -14.75,44.5 -1.5,6.5 -17.5,20.75 -20,23.5 -2.5,2.75 -13.25,7.25 -19.5,8.5 -6.25,1.25 -12.75,7.25 -15.5,11 -2.021,2.76 -7.406,6.45 -10.125,8.22 -0.046,0.18 -0.079,0.35 -0.125,0.53 -0.134,0.53 -0.247,1.08 -0.375,1.63 4.98,-1.61 11.18,-8.18 16.625,-13.63 6.25,-6.25 20,-7.75 27.75,-11.5 7.75,-3.75 14.25,-19.75 26.5,-23.75 12.25,-4 21.25,11.75 24.25,18.5 3,6.75 1.75,12.75 3.75,17 2,4.25 11,11.75 11.5,13.5 0.5,1.75 -5,6.5 -6.25,8.5 -1.25,2 -10.5,7 -11.75,8.75 -0.97,1.35 -1.92,6.77 -2.31,9.22 0.41,-0.17 0.75,-0.31 1.12,-0.47 0.49,-2.53 1.52,-7.08 2.94,-8.5 2,-2 11.25,-4.5 12.5,-8.5 1.25,-4 7,-6.5 7,-6.5 0,0 2.75,4 16,14 8.83,6.67 12.76,15.53 14.41,20.72 0.67,0.17 1.53,0.41 2.03,0.53 -1.22,-4.32 -4.84,-16.24 -8.94,-20.75 -5,-5.5 -18.5,-10.75 -22.75,-22 -4.25,-11.25 -24.5,-34.25 -17.5,-40.25 7,-6 16.5,-4 28.5,7.5 12,11.5 46.25,5.75 57.75,3.75 9.95,-1.73 20.83,14.88 23.91,26.03 0.59,-2.09 1.12,-4 1.65,-5.75 -1.74,-1.92 -3.69,-4.62 -5.31,-8.28 -3.75,-8.5 -12,-13.25 -12,-13.25 0,0 8.75,-5 14.75,-7.75 1.62,-0.74 3.01,-1.68 4.19,-2.66 -0.16,-0.77 -0.26,-1.25 -0.44,-2.09 -0.03,-0.15 -0.06,-0.29 -0.09,-0.44 -4.77,5.56 -19.24,9.62 -21.66,10.94 -2.75,1.5 -18.25,3 -35.75,4.5 -17.5,1.5 -26.75,-7.5 -34.25,-14.75 -7.5,-7.25 -13,-36 -3,-38 10,-2 20,13.75 30,17 10,3.25 21.5,-15.75 19.75,-27 -1.2,-7.734 -14,-12.625 -24.47,-12.656 z m -53.34,13.281 c 1.27,0.001 5.86,1.594 6.56,2.375 2.25,2.5 2,7.25 0,8 -2,0.75 -12.75,8 -10.5,14.25 2.25,6.25 1.75,18 -3.5,18 -5.25,0 -8,0 -10,-2.5 -2,-2.5 -2,-12 0,-19.75 2,-7.75 3.5,-15 8,-18.25 3.094,-2.234 6.63,-2.128 9.44,-2.125 z m 13.59,73.095 c 0.2,0.01 1.91,3.51 4.72,7.03 3,3.75 3.25,8.25 3.25,8.25 0,0 -4.25,-4.75 -6,-8 -1.75,-3.25 -2,-7.25 -2,-7.25 0,-0.03 0.02,-0.03 0.03,-0.03 z"
           id="path5280" />
        <path
           style="opacity:0.38696002;fill:none;stroke:#6d7f42;stroke-linecap:round;stroke-linejoin:round"
           inkscape:connector-curvature="0"
           d="M 122.75,62.25 C 129,62.75 135,60 133.5,55.75 132,51.5 121,48.5 120.25,52.75 c -0.75,4.25 2,10.5 2.5,9.5 z"
           id="path5319" />
        <path
           style="opacity:0.38696002;fill:none;stroke:#6d7f42;stroke-linecap:round;stroke-linejoin:round"
           inkscape:connector-curvature="0"
           d="m 108.75,46.75 c -8.5,-5.5 -8.5,-7.25 -7,-8 1.5,-0.75 10.25,5 12.75,8 2.5,3 -2.25,2 -5.75,0 z"
           id="path5321" />
        <g
           style="fill:none;stroke:#6d7f42"
           transform="translate(0,-10)"
           clip-path="url(#clipPath5383)"
           id="g5373">
          <path
             style="opacity:0.38696002;stroke-linecap:round;stroke-linejoin:round"
             inkscape:connector-curvature="0"
             d="M 15.75,151.25 C 48.75,148.75 54,147.75 52,141 50,134.25 43.25,117.5 29,118.5 14.75,119.5 6.25,111.75 6.25,111.75"
             id="path5323" />
          <path
             style="opacity:0.38696002"
             inkscape:connector-curvature="0"
             d="m 17.5,177.25 c 18.25,-10 28.75,-8.5 35,-11.5 6.25,-3 13.25,-5.75 15.75,-9.5 2.5,-3.75 5.75,-11.5 5.75,-18 0,-6.5 -3.5,-36 3.25,-43.5 6.75,-7.5 17.25,-26 26,-23.25 8.75,2.75 12.25,9.75 22,9.5 9.75,-0.25 21.75,-4 24.25,-12.25 2.5,-8.25 -15.75,-16 -16,-23 -0.25,-7 5.5,-14.25 20.25,-17 14.75,-2.75 23.5,-11.5 23.5,-11.5"
             id="path5311" />
          <path
             style="opacity:0.38696002;stroke-linecap:round;stroke-linejoin:round"
             inkscape:connector-curvature="0"
             d="m 14.5,161 c 15.25,-1.5 22.25,3.5 31.5,1.75 9.25,-1.75 13.25,-3 17.75,-5.75 4.5,-2.75 6,-3.75 6.25,-6.5 0.25,-2.75 1,-12.5 -3,-22 C 63,119 54.5,97 58.75,89.75 63,82.5 64,68.25 74.5,65.25 85,62.25 95.5,59 102.25,64 c 6.75,5 12.75,14.25 20,14.5 7.25,0.25 11.75,-1.5 14.5,-4.5 2.75,-3 4.5,-10.25 1.75,-13.75 -2.75,-3.5 -15.5,-5.5 -17.25,-9.5 -1.75,-4 -10.75,-17 -0.25,-26.75 10.5,-9.75 36.25,-8.25 36.25,-8.25"
             id="path5313" />
          <path
             style="opacity:0.38696002;stroke-linecap:round;stroke-linejoin:round"
             inkscape:connector-curvature="0"
             d="m 21.25,159 c 13.75,1 21.5,4.25 33.5,-0.5 12,-4.75 13.5,-5.25 13.75,-8.75 0.25,-3.5 -0.25,-15.75 -3,-20 C 62.75,125.5 52.5,116 49.75,105.5 47,95 50,64.5 58.25,57.25 66.5,50 90.25,50 95.75,46.75 101.25,43.5 101,30 108.75,22.25 116.5,14.5 135.75,10 135.75,10"
             id="path5315" />
          <path
             style="opacity:0.38696002;stroke-linecap:round;stroke-linejoin:round"
             inkscape:connector-curvature="0"
             d="m 190,18.5 c 11.75,5 39,9.75 47.25,40.25"
             id="path5317" />
          <path
             style="opacity:0.38696002;stroke-linecap:round;stroke-linejoin:round"
             inkscape:connector-curvature="0"
             d="m 9.75,214 c 19,-12.5 36,-1.25 49,-4 13,-2.75 38.25,-37.25 46,-37 7.75,0.25 5.5,-11.75 8.5,-13.25 3,-1.5 5.5,6 11.75,8 6.25,2 24.5,-2.75 23.5,-5.75 -1,-3 -7,-7.75 -5.5,-8.5 1.5,-0.75 8.5,5 12.75,3.5 4.25,-1.5 43.75,-1 48.5,-13.5 C 209,131 225.75,130 225.75,130"
             id="path5325" />
          <path
             style="opacity:0.38696002;stroke-linecap:round;stroke-linejoin:round"
             inkscape:connector-curvature="0"
             d="m 77.5,233.5 c 13.5,-11.5 23.25,-25 28.5,-27 5.25,-2 12.75,-3.75 15.75,-8 3,-4.25 2.5,-10.75 5.25,-12 2.75,-1.25 3.75,5.75 8.75,6 5,0.25 36.75,-5 42.75,-11.75 6,-6.75 32.25,-12.5 32.5,-14.5 0.25,-2 -1,-4.75 0.25,-5.5 1.25,-0.75 24.75,-6 24.75,-6"
             id="path5327" />
          <path
             style="opacity:0.38696002;stroke-linecap:round;stroke-linejoin:round"
             inkscape:connector-curvature="0"
             d="m 168.75,236 c 9,-13.75 20.5,-41 29.5,-42 9,-1 10.25,-2.5 12.5,-4.25 2.25,-1.75 17,2.25 17,2.25"
             id="path5329" />
        </g>
        <g
           style="fill:none;stroke:#d38484;stroke-width:2;stroke-linecap:round"
           transform="translate(0,-10)"
           clip-path="url(#clipPath5426)"
           id="g5400">
          <path
             inkscape:connector-curvature="0"
             d="m 57.75,20 -8.5,28.25 18,6.25 L 75,90.75 54,113 l 9,10.5 -12,11.5 0.5,4.5 20.25,24.5 14,-6.75 20.5,18.5 -10.5,28.25 10.25,8.5 -2.75,13"
             id="path5387" />
          <path
             inkscape:connector-curvature="0"
             d="m 105.75,212.25 12.5,-27.75 11,-7 27.5,15.75 20.5,-3.75 -0.25,-15.75 -10.25,-6 12.75,-26.25 5.75,-3.75 38.75,-10"
             id="path5389" />
        </g>
      </g>
      <path
         id="path3834-49"
         d="m 9,2.25 c 0,0 7.5,13 11.75,27.75 C 25,44.75 27,55.5 27,55.5 c 0,0 -5.5,12.75 -8.25,24.75 -2.75,12 -5.75,23 -5.75,23 0,0 5.75,16 9.25,30 3.5,14 3.75,24.25 3.75,24.25 0,0 -4,10.25 -7.5,24.25 -3.5,14 -5,30.75 -5,30.75 0,0 9.25,-2 28.5,1.25 19.25,3.25 32.25,6 32.25,6 0,0 12.75,-2.75 24,-6.25 11.25,-3.5 16.25,-6.5 16.25,-6.5 0,0 5.5,0.5 22.5,6.25 17,5.75 29.25,8.5 29.25,8.5 0,0 13,-2.75 26,-5.75 13,-3 26.5,-8 26.5,-8 0,0 -0.75,-5 4.25,-24.5 5,-19.5 8.75,-28 8.75,-28 0,0 -0.5,-4.5 -3.75,-19.75 C 224.75,120.5 218,106 218,106 c 0,0 1.75,-10.5 6.75,-23.75 C 229.75,69 235,55.5 235,55.5 c 0,0 -4.75,-15.25 -7.5,-29.75 C 224.75,11.25 219.25,0 219.25,0 c 0,0 -24.25,9 -31.75,10.5 -7.5,1.5 -21,5.25 -21,5.25 0,0 -9.75,-4.25 -22,-8.5 -12.25,-4.25 -29.75,-5.5 -29.75,-5.5 0,0 -3.25,3.5 -22,8 -18.75,4.5 -27.5,5.75 -27.5,5.75 0,0 -18.5,-9 -31.5,-11.5 C 20.75,1.5 9.75,2 9,2.25 Z"
         style="opacity:0.03913;fill:url(#linearGradient5168)"
         inkscape:connector-curvature="0" />
      <g
         id="layer3">
        <g
           style="opacity:0.26957003"
           transform="translate(0,182)"
           id="g4808">
          <path
             style="fill:url(#linearGradient4806-9)"
             inkscape:connector-curvature="0"
             d="m 219.25,-182 c 0,0 -24.25,9 -31.75,10.5 -7.5,1.5 -21,5.25 -21,5.25 4.92,-1.36 11.44,45.39 14.25,52.25 l -0.06,0.28 c 11.81,-4.07 51.21,-4.77 54.31,-12.78 0,0 -4.75,-15.25 -7.5,-29.75 -2.75,-14.5 -8.25,-25.75 -8.25,-25.75 z"
             id="path3834-4-9" />
          <path
             style="fill:url(#linearGradient4790-3)"
             inkscape:connector-curvature="0"
             d="m 27,-126.5 c 0,0 -5.5,12.75 -8.25,24.75 -2.75,12 -5.75,23 -5.75,23 L 63.625,-62.469 79.406,-121.38 27,-126.5 Z"
             id="path3834-7-2-4-9" />
          <path
             style="fill:url(#linearGradient4758-2)"
             inkscape:connector-curvature="0"
             d="m 26,-24.5 c 0,0 -4,10.25 -7.5,24.25 -3.5,14 -5,30.75 -5,30.75 0,0 0.147,-0.045 0.438,-0.094 2.033,-0.338 11.218,-1.5 28.062,1.344 19.25,3.25 32.25,6 32.25,6 l 1.469,-52.5 -0.75,0.125 L 26,-24.5 Z"
             id="path3834-7-26-9-7" />
          <path
             style="fill:url(#linearGradient4750-9)"
             inkscape:connector-curvature="0"
             d="m 114.75,-180.25 c 0,0 -3.25,3.5 -22,8 -18.75,4.5 -27.5,5.75 -27.5,5.75 5.182,14.7 12.03,29.27 14.25,44.75 l -0.094,0.31 48.034,-3.94 1.12,0.26 c -3.36,-13.33 -7.79,-54.6 -13.81,-55.13 z"
             id="path3834-4-9-6" />
          <path
             style="fill:url(#linearGradient4782-5)"
             inkscape:connector-curvature="0"
             d="M 117.59,-78.094 63.969,-62.375 63.625,-62.469 63.5,-62 l 12.25,46.5 -0.031,0.75 49.471,-8.875 0.53,0.187 0.03,-0.062 -8.25,-54.25 0.09,-0.344 z"
             id="path3834-7-26-0-0-9" />
          <path
             style="fill:url(#linearGradient4798-4)"
             inkscape:connector-curvature="0"
             d="m 128.56,-125.12 c 0.24,0.92 0.47,1.74 0.69,2.37 l -11.66,44.656 0.1,-0.031 51.81,17.375 11.19,-52.97 c -0.36,0.12 -0.7,0.25 -1,0.38 l -51.13,-11.78 z"
             id="path3834-7-2-4-3" />
          <path
             style="fill:url(#linearGradient4766-3)"
             inkscape:connector-curvature="0"
             d="M 125.53,-23.5 114.5,25 c 0,0 5.5,0.5 22.5,6.25 2.12,0.719 4.16,1.406 6.12,2.031 1.97,0.626 3.86,1.186 5.63,1.719 10.62,3.199 17.5,4.75 17.5,4.75 l 12.72,-45.406 c -0.51,0.1824 -1.02,0.3808 -1.53,0.5622 l -51.91,-18.406 z"
             id="path3834-7-26-9-85" />
          <path
             style="fill:url(#linearGradient4965)"
             inkscape:connector-curvature="0"
             d="m 218,-76 c -15.67,6.288 -31.7,11.15 -48.06,15.406 l -0.44,-0.156 9.5,55 -0.03,0.0937 c 17.84,-6.3597 35.38,-13.387 52.78,-20.844 0,0 -0.5,-4.5 -3.75,-19.75 -3.25,-15.25 -10,-29.75 -10,-29.75 z"
             id="path3834-7-26-0-0-3" />
        </g>
        <g
           style="opacity:0.04347797"
           transform="translate(0,182)"
           id="g4818">
          <path
             style="fill:url(#linearGradient4686-3)"
             inkscape:connector-curvature="0"
             d="m 13.719,-179.97 c -1.106,0 -1.972,0.03 -2.719,0.06 -0.445,0.02 -0.855,0.04 -1.1562,0.07 -0.0293,0 -0.066,-0.01 -0.0938,0 -0.3979,0.03 -0.6562,0.06 -0.75,0.09 0,0 7.5,13 11.75,27.75 4.25,14.75 6.25,25.5 6.25,25.5 l 51.469,5.12 0.937,-0.06 0.094,-0.31 c -2.22,-15.48 -9.068,-30.05 -14.25,-44.75 0,0 -18.5,-9 -31.5,-11.5 -1.018,-0.2 -2.01,-0.37 -3,-0.53 -0.596,-0.1 -1.167,-0.2 -1.75,-0.28 -0.237,-0.04 -0.453,-0.06 -0.688,-0.1 -1.306,-0.18 -2.588,-0.34 -3.812,-0.46 -0.735,-0.08 -1.395,-0.13 -2.094,-0.19 -0.685,-0.06 -1.353,-0.11 -2,-0.16 -0.992,-0.07 -1.89,-0.12 -2.781,-0.15 -1.456,-0.07 -2.769,-0.1 -3.906,-0.1 z"
             id="path3834-4-9-1" />
          <path
             style="fill:url(#linearGradient4742-3)"
             inkscape:connector-curvature="0"
             d="m 13,-78.75 c 0,0 5.75,16 9.25,30 3.5,14 3.75,24.25 3.75,24.25 l 48.969,9.875 0.75,-0.125 L 75.75,-15.5 63.5,-62 63.625,-62.469 13,-78.75 Z"
             id="path3834-7-26-0-0-7" />
          <path
             style="fill:url(#linearGradient4734-3)"
             inkscape:connector-curvature="0"
             d="m 127.44,-125.38 -47.971,4 -0.063,0 -15.781,58.911 0.344,0.094 53.621,-15.719 11.66,-44.656 c -0.22,-0.63 -0.45,-1.45 -0.69,-2.37 l -1.12,-0.26 z"
             id="path3834-7-2-4-6" />
          <path
             style="fill:url(#linearGradient4726-9)"
             inkscape:connector-curvature="0"
             d="m 125.19,-23.625 -49.471,8.875 -1.469,52.5 c 0,0 12.75,-2.75 24,-6.25 C 109.5,28 114.5,25 114.5,25 l 11.22,-48.438 -0.53,-0.187 z"
             id="path3834-7-26-9-8" />
          <path
             style="fill:url(#linearGradient4710-2)"
             inkscape:connector-curvature="0"
             d="m 114.75,-180.25 c 6.02,0.53 10.45,41.8 13.81,55.13 l 51.13,11.78 c 0.3,-0.13 0.64,-0.26 1,-0.38 l 0.06,-0.28 c -2.81,-6.86 -9.33,-53.61 -14.25,-52.25 0,0 -0.61,-0.25 -1.72,-0.72 -3.32,-1.39 -11.09,-4.59 -20.28,-7.78 -12.25,-4.25 -29.75,-5.5 -29.75,-5.5 z"
             id="path3834-4-9-2" />
          <path
             style="fill:url(#linearGradient4718-4)"
             inkscape:connector-curvature="0"
             d="m 117.69,-78.125 -0.1,0.031 -0.09,0.344 8.25,53.25 -0.22,1 51.91,18.406 c 0.51,-0.1813 1.02,-0.3797 1.53,-0.5623 L 179,-5.75 l -9.5,-55 -51.81,-17.375 z"
             id="path3834-7-26-0-0-0" />
          <path
             style="fill:url(#linearGradient4694-4)"
             inkscape:connector-curvature="0"
             d="m 231.75,-26.5 c -17.4,7.457 -34.94,14.484 -52.78,20.844 L 166.25,39.75 c 0,0 13,-2.75 26,-5.75 13,-3 26.5,-8 26.5,-8 0,0 -0.75,-5 4.25,-24.5 5,-19.5 8.75,-28 8.75,-28 z"
             id="path3834-7-26-9-9" />
          <path
             style="fill:url(#linearGradient4702-4)"
             inkscape:connector-curvature="0"
             d="m 235,-126.5 c -3.1,8.01 -42.5,8.71 -54.31,12.78 l -11.19,52.97 0.44,0.156 C 186.3,-64.85 202.33,-69.712 218,-76 c 0,0 1.75,-10.5 6.75,-23.75 5,-13.25 10.25,-26.75 10.25,-26.75 z"
             id="path3834-7-2-4-5" />
        </g>
      </g>
    </g>
    <g
       id="g4174"
       transform="matrix(1.8288079,0,0,1.8288079,148.53898,416.49817)"
       style="opacity:0.6">
      <g
         id="g4138"
         style="fill:#ffffff;stroke:#000000;stroke-width:4;stroke-linejoin:miter">
        <path
           id="path4140"
           d="m 0,-48 41.6,24 0,48 L 0,48 -41.6,24 l 0,-48 z"
           inkscape:connector-curvature="0"
           style="" />
        <line
           id="line4142"
           y2="-24"
           x2="41.599998"
           y1="0"
           x1="0"
           style="" />
        <line
           id="line4144"
           y2="48"
           x2="0"
           y1="0"
           x1="0"
           style="" />
        <line
           id="line4146"
           y2="-24"
           x2="-41.599998"
           y1="0"
           x1="0"
           style="" />
      </g>
      <g
         id="g4148"
         style="fill:#000000;stroke:none">
        <circle
           id="circle4150"
           r="5"
           cy="12"
           cx="-20.799999"
           style="" />
        <circle
           id="circle4152"
           r="5"
           cy="-24"
           cx="-20.799999"
           style="" />
        <circle
           id="circle4154"
           r="5"
           cy="-24"
           cx="0"
           style="" />
        <circle
           id="circle4156"
           r="5"
           cy="-24"
           cx="20.799999"
           style="" />
        <circle
           id="circle4158"
           r="5"
           cy="12"
           cx="20.799999"
           style="" />
        <circle
           id="circle4160"
           r="5"
           cy="6"
           cx="10.4"
           style="" />
        <circle
           id="circle4162"
           r="5"
           cy="18"
           cx="31.200001"
           style="" />
        <circle
           id="circle4164"
           r="5"
           cy="-6"
           cx="31.200001"
           style="" />
        <circle
           id="circle4166"
           r="5"
           cy="30"
           cx="10.4"
           style="" />
      </g>
    </g>
    <g
       transform="translate(-11.428571,0)"
       style="font-style:normal;font-weight:normal;font-size:6.37070084px;line-height:125%;font-family:Sans;letter-spacing:0px;word-spacing:0px;fill:#000000;fill-opacity:1;stroke:none;stroke-width:1px;stroke-linecap:butt;stroke-linejoin:miter;stroke-opacity:1"
       id="flowRoot4404">
      <path
         d="m 299.90723,438.46336 q 0,-16.04004 8.61328,-25.09277 8.61328,-9.09668 22.23633,-9.09668 8.92089,0 16.08398,4.2627 7.16309,4.26269 10.89844,11.90918 3.77929,7.60253 3.77929,17.2705 0,9.79981 -3.95507,17.53418 -3.95508,7.73438 -11.20606,11.7334 -7.25097,3.95508 -15.64453,3.95508 -9.09668,0 -16.25977,-4.39453 -7.16308,-4.39453 -10.85449,-11.99707 -3.6914,-7.60254 -3.6914,-16.08399 z m 8.78906,0.13184 q 0,11.64551 6.24023,18.36914 6.28418,6.67969 15.73243,6.67969 9.62402,0 15.82031,-6.76758 6.24023,-6.76758 6.24023,-19.2041 0,-7.86621 -2.68066,-13.71094 -2.63672,-5.88867 -7.77832,-9.09668 -5.09766,-3.25195 -11.46973,-3.25195 -9.05273,0 -15.60058,6.24023 -6.50391,6.19629 -6.50391,20.74219 z"
         style="font-style:normal;font-variant:normal;font-weight:normal;font-stretch:normal;font-size:90px;font-family:Arial;-inkscape-font-specification:Arial"
         id="path4400" />
      <path
         d="m 371.4502,487.72606 0,-64.55567 7.20703,0 0,6.06446 q 2.54882,-3.55957 5.75683,-5.31739 3.20801,-1.80175 7.77832,-1.80175 5.97657,0 10.54688,3.07617 4.57031,3.07617 6.89941,8.70117 2.3291,5.58106 2.3291,12.26074 0,7.16309 -2.59277,12.91992 -2.54883,5.7129 -7.4707,8.78907 -4.87793,3.03222 -10.28321,3.03222 -3.95507,0 -7.11914,-1.66992 -3.12011,-1.66992 -5.1416,-4.21875 l 0,22.71973 -7.91015,0 z m 7.16308,-40.95703 q 0,9.00879 3.64746,13.31543 3.64746,4.30664 8.83301,4.30664 5.27344,0 9.00879,-4.43848 3.7793,-4.48242 3.7793,-13.84277 0,-8.9209 -3.69141,-13.35938 -3.64746,-4.43847 -8.74512,-4.43847 -5.05371,0 -8.96484,4.74609 -3.86719,4.70215 -3.86719,13.71094 z"
         style="font-style:normal;font-variant:normal;font-weight:normal;font-stretch:normal;font-size:90px;font-family:Arial;-inkscape-font-specification:Arial"
         id="path4402" />
      <path
         d="m 453.49609,454.81102 8.17383,1.01074 q -1.93359,7.16309 -7.16308,11.11817 -5.2295,3.95507 -13.35938,3.95507 -10.23926,0 -16.25976,-6.28418 -5.97657,-6.32812 -5.97657,-17.70996 0,-11.77734 6.06446,-18.28125 6.06445,-6.5039 15.73242,-6.5039 9.36035,0 15.29297,6.37207 5.93261,6.37207 5.93261,17.92968 0,0.70313 -0.0439,2.10938 l -34.80469,0 q 0.43945,7.69043 4.35059,11.77734 3.91113,4.08692 9.75586,4.08692 4.35058,0 7.42675,-2.28516 3.07618,-2.28515 4.87793,-7.29492 z m -25.97168,-12.78809 26.05957,0 q -0.52734,-5.88867 -2.98828,-8.833 -3.77929,-4.57032 -9.7998,-4.57032 -5.44922,0 -9.18457,3.64746 -3.69141,3.64747 -4.08692,9.75586 z"
         style="font-style:normal;font-variant:normal;font-weight:normal;font-stretch:normal;font-size:90px;font-family:Arial;-inkscape-font-specification:Arial"
         id="path4404" />
      <path
         d="m 471.64551,469.84032 0,-46.66993 7.11914,0 0,6.63575 q 5.1416,-7.69043 14.85351,-7.69043 4.21875,0 7.73438,1.53808 3.55957,1.49414 5.31738,3.95508 1.75781,2.46094 2.46094,5.84473 0.43945,2.19726 0.43945,7.69043 l 0,28.69629 -7.91015,0 0,-28.38868 q 0,-4.83398 -0.92286,-7.20703 -0.92285,-2.41699 -3.29589,-3.82324 -2.32911,-1.45019 -5.49317,-1.45019 -5.05371,0 -8.74512,3.208 -3.64746,3.20801 -3.64746,12.17286 l 0,25.48828 -7.91015,0 z"
         style="font-style:normal;font-variant:normal;font-weight:normal;font-stretch:normal;font-size:90px;font-family:Arial;-inkscape-font-specification:Arial"
         id="path4406" />
    </g>
    <g
       transform="translate(741.379,-0.09819713)"
       style="font-style:normal;font-weight:normal;font-size:6.37070084px;line-height:125%;font-family:Sans;letter-spacing:0px;word-spacing:0px;fill:#000000;fill-opacity:1;stroke:none;stroke-width:1px;stroke-linecap:butt;stroke-linejoin:miter;stroke-opacity:1"
       id="flowRoot4404-5">
      <path
         d="m 302.23633,469.84032 0,-64.42383 12.83203,0 15.24902,45.61523 q 2.10938,6.37207 3.07617,9.53614 1.09864,-3.51563 3.42774,-10.32715 l 15.4248,-44.82422 11.46973,0 0,64.42383 -8.21777,0 0,-53.9209 -18.72071,53.9209 -7.69043,0 -18.63281,-54.84375 0,54.84375 -8.21777,0 z"
         style="font-style:normal;font-variant:normal;font-weight:normal;font-stretch:normal;font-size:90px;font-family:Arial;-inkscape-font-specification:Arial"
         id="path4424"
         inkscape:connector-curvature="0" />
      <path
         d="m 407.00195,464.08348 q -4.39453,3.73535 -8.48144,5.27344 -4.04297,1.53808 -8.70117,1.53808 -7.69043,0 -11.82129,-3.73535 -4.13086,-3.77929 -4.13086,-9.62402 0,-3.42774 1.53808,-6.24024 1.58203,-2.85644 4.08692,-4.57031 2.54883,-1.71387 5.71289,-2.59277 2.3291,-0.61524 7.03125,-1.18652 9.58008,-1.14258 14.10644,-2.72461 0.044,-1.62598 0.044,-2.06543 0,-4.83399 -2.24121,-6.81153 -3.03223,-2.68066 -9.00879,-2.68066 -5.58106,0 -8.26172,1.97754 -2.63672,1.93359 -3.91113,6.89941 l -7.73438,-1.05469 q 1.05469,-4.96582 3.47168,-7.99804 2.41699,-3.07617 6.98731,-4.70215 4.57031,-1.66992 10.59082,-1.66992 5.97656,0 9.71191,1.40625 3.73535,1.40625 5.49316,3.55957 1.75782,2.10937 2.46094,5.36133 0.39551,2.02148 0.39551,7.29492 l 0,10.54687 q 0,11.03028 0.4834,13.97461 0.52734,2.90039 2.02148,5.58106 l -8.26172,0 q -1.23046,-2.46094 -1.58203,-5.75684 z m -0.65918,-17.66602 q -4.30664,1.75782 -12.91992,2.98829 -4.87793,0.70312 -6.89941,1.58203 -2.02149,0.8789 -3.12012,2.59277 -1.09863,1.66992 -1.09863,3.73535 0,3.16406 2.37304,5.27344 2.417,2.10937 7.03125,2.10937 4.57032,0 8.12989,-1.97753 3.55957,-2.02149 5.22949,-5.49317 1.27441,-2.68066 1.27441,-7.91015 l 0,-2.9004 z"
         style="font-style:normal;font-variant:normal;font-weight:normal;font-stretch:normal;font-size:90px;font-family:Arial;-inkscape-font-specification:Arial"
         id="path4426"
         inkscape:connector-curvature="0" />
      <path
         d="m 426.64551,487.72606 0,-64.55567 7.20703,0 0,6.06446 q 2.54883,-3.55957 5.75683,-5.31739 3.20801,-1.80175 7.77833,-1.80175 5.97656,0 10.54687,3.07617 4.57031,3.07617 6.89941,8.70117 2.32911,5.58106 2.32911,12.26074 0,7.16309 -2.59278,12.91992 -2.54883,5.7129 -7.4707,8.78907 -4.87793,3.03222 -10.2832,3.03222 -3.95508,0 -7.11914,-1.66992 -3.12012,-1.66992 -5.14161,-4.21875 l 0,22.71973 -7.91015,0 z m 7.16308,-40.95703 q 0,9.00879 3.64746,13.31543 3.64747,4.30664 8.83301,4.30664 5.27344,0 9.00879,-4.43848 3.7793,-4.48242 3.7793,-13.84277 0,-8.9209 -3.69141,-13.35938 -3.64746,-4.43847 -8.74512,-4.43847 -5.05371,0 -8.96484,4.74609 -3.86719,4.70215 -3.86719,13.71094 z"
         style="font-style:normal;font-variant:normal;font-weight:normal;font-stretch:normal;font-size:90px;font-family:Arial;-inkscape-font-specification:Arial"
         id="path4428"
         inkscape:connector-curvature="0" />
    </g>
    <g
       transform="translate(211.21093,-47.359894)"
       style="font-style:normal;font-weight:normal;font-size:6.37070084px;line-height:125%;font-family:Sans;letter-spacing:0px;word-spacing:0px;fill:#000000;fill-opacity:1;stroke:none;stroke-width:1px;stroke-linecap:butt;stroke-linejoin:miter;stroke-opacity:1"
       id="flowRoot4404-55">
      <path
         d="m 342.00684,425.01813 q -3.42774,0 -4.52637,0.70312 -1.05469,0.65918 -1.05469,2.28516 l 0,14.9414 3.25195,0 q 5.40528,0 7.51465,-1.75781 2.10938,-1.75781 2.10938,-7.69043 0,-2.90039 -0.52735,-4.6582 -0.48339,-1.75781 -1.62597,-2.54883 -1.09864,-0.79102 -2.24121,-1.01074 -1.09864,-0.26367 -2.90039,-0.26367 z m -5.58106,21.44531 0,5.84473 q 0,9.00878 0.61524,13.49121 l -0.0879,0.17578 q -2.59277,-0.17578 -4.87792,-0.17578 l -4.92188,0.17578 -0.0879,-0.17578 q 0.70312,-4.96582 0.70312,-13.49121 l 0,-16.56739 q 0,-8.34961 -0.70312,-13.49121 l 0.17578,-0.17578 q 2.50488,0.17578 4.83399,0.17578 1.09863,0 5.05371,-0.21973 3.95507,-0.21972 4.79004,-0.21972 16.74316,0 16.74316,11.68945 0,9.14063 -10.19531,11.77735 1.49414,1.97753 7.29492,10.15136 5.80078,8.17383 7.73437,10.3711 l -0.17578,0.17578 q -1.3623,-0.17578 -4.92187,-0.17578 -3.25196,0 -4.61426,0.17578 -1.09863,-3.33985 -7.20703,-12.04102 -3.42774,-4.92187 -5.80078,-7.60254 -1.84571,0.13184 -4.35059,0.13184 z m -18.45703,-41.57227 q -4.04297,0 -6.24023,2.15332 -2.15332,2.15332 -2.15332,6.19629 l 0,61.04004 q 0,7.4707 8.39355,7.4707 l 51.45996,0 q 4.04297,0 5.75684,-1.71386 1.71386,-1.71387 1.71386,-5.75684 l 0,-61.04004 q 0,-8.34961 -7.4707,-8.34961 l -51.45996,0 z m 67.58789,72.15821 q 0,6.19629 -2.41699,8.833 -2.37305,2.68067 -8.30567,2.68067 l -56.86523,0 q -6.1084,0 -8.87695,-2.76856 -2.72461,-2.72461 -2.72461,-8.74511 l 0,-63.8086 q 0,-5.58105 3.03222,-8.56933 3.07618,-3.03223 8.56934,-3.03223 l 54.18457,0 q 6.28418,0 9.84375,2.90039 3.55957,2.85645 3.55957,8.70117 l 0,63.8086 z"
         style="font-style:normal;font-variant:normal;font-weight:bold;font-stretch:normal;font-size:90px;font-family:'Linux Biolinum Keyboard';-inkscape-font-specification:'Linux Biolinum Keyboard Bold'"
         id="path4431" />
    </g>
    <g
       transform="translate(299.80573,-87.010354)"
       style="font-style:normal;font-weight:normal;font-size:6.37070084px;line-height:125%;font-family:Sans;letter-spacing:0px;word-spacing:0px;fill:#000000;fill-opacity:1;stroke:none;stroke-width:1px;stroke-linecap:butt;stroke-linejoin:miter;stroke-opacity:1"
       id="flowRoot4404-55-0">
      <path
         d="m 317.96875,404.89117 q -4.04297,0 -6.24023,2.15332 -2.15332,2.15332 -2.15332,6.19629 l 0,61.04004 q 0,7.4707 8.39355,7.4707 l 51.45996,0 q 4.04297,0 5.75684,-1.71386 1.71386,-1.71387 1.71386,-5.75684 l 0,-61.04004 q 0,-8.34961 -7.4707,-8.34961 l -51.45996,0 z m 67.58789,72.15821 q 0,6.19629 -2.41699,8.833 -2.37305,2.68067 -8.30567,2.68067 l -56.86523,0 q -6.1084,0 -8.87695,-2.76856 -2.72461,-2.72461 -2.72461,-8.74511 l 0,-63.8086 q 0,-5.58105 3.03222,-8.56933 3.07618,-3.03223 8.56934,-3.03223 l 54.18457,0 q 6.28418,0 9.84375,2.90039 3.55957,2.85645 3.55957,8.70117 l 0,63.8086 z m -43.85742,-44.86817 q -4.87793,11.25 -6.45996,14.98535 0.96679,0 3.47168,0.0879 2.50488,0.0879 3.55957,0.0879 2.06543,0 5.625,-0.0879 -2.72461,-7.11914 -6.19629,-15.07324 z m -8.04199,18.85254 q -3.95508,9.75586 -5.36133,14.94141 -0.79102,-0.17578 -3.03223,-0.17578 -2.98828,0 -3.7793,0.17578 9.71192,-21.04981 19.86329,-44.56055 l 4.79004,0 q 2.3291,5.58106 6.5039,15.95215 4.21875,10.32715 7.33887,18.01758 3.16406,7.64648 4.61426,10.59082 -1.18653,-0.17578 -5.49317,-0.17578 -3.60351,0 -4.79004,0.17578 -1.53808,-5.625 -5.00976,-14.98535 -4.43848,-0.13184 -6.67969,-0.13184 -3.99902,0 -8.96484,0.17578 z"
         style="font-style:normal;font-variant:normal;font-weight:bold;font-stretch:normal;font-size:90px;font-family:'Linux Biolinum Keyboard';-inkscape-font-specification:'Linux Biolinum Keyboard Bold'"
         id="path4421" />
    </g>
    <g
       transform="translate(394.09144,-49.867497)"
       style="font-style:normal;font-weight:normal;font-size:6.37070084px;line-height:125%;font-family:Sans;letter-spacing:0px;word-spacing:0px;fill:#000000;fill-opacity:1;stroke:none;stroke-width:1px;stroke-linecap:butt;stroke-linejoin:miter;stroke-opacity:1"
       id="flowRoot4404-55-6">
      <path
         d="m 324.5166,435.74078 q 0,-8.34961 -0.70312,-13.49121 l 0.17578,-0.17578 q 2.50488,0.17578 4.79004,0.17578 0,0 2.24121,-0.0879 l 23.20312,29.9707 q 2.76856,3.64746 2.94434,3.73536 0.35156,0.21972 0.4834,-0.39551 0.0879,-0.4834 0.0879,-1.62598 l 0,-18.10547 q 0,-8.34961 -0.70313,-13.49121 l -1.18652,-0.17578 q 2.68066,0.17578 4.30664,0.17578 l 1.80176,-0.17578 1.45019,0.17578 q -0.70312,4.79004 -0.70312,13.49121 l 0,28.6084 q 0,0.87891 -0.9668,1.53809 -0.92285,0.61523 -1.75781,0.61523 -2.59277,0 -4.21875,-0.83496 -1.62598,-0.83496 -3.95508,-3.82324 l -21.13769,-26.71875 q -0.79102,-1.01074 -1.40625,-2.02149 l -0.13184,0 q 0.26367,1.4502 0.26367,3.07618 l 0,16.12793 q 0,8.48144 0.70313,13.49121 l -0.17579,0.17578 q -1.3623,-0.17578 -2.94433,-0.17578 l -3.07617,0.17578 -0.0879,-0.17578 q 0.70312,-4.79004 0.70312,-13.49121 l 0,-16.56739 z m -6.54785,-30.84961 q -4.04297,0 -6.24023,2.15332 -2.15332,2.15332 -2.15332,6.19629 l 0,61.04004 q 0,7.4707 8.39355,7.4707 l 51.45996,0 q 4.04297,0 5.75684,-1.71386 1.71386,-1.71387 1.71386,-5.75684 l 0,-61.04004 q 0,-8.34961 -7.4707,-8.34961 l -51.45996,0 z m 67.58789,72.15821 q 0,6.19629 -2.41699,8.833 -2.37305,2.68067 -8.30567,2.68067 l -56.86523,0 q -6.1084,0 -8.87695,-2.76856 -2.72461,-2.72461 -2.72461,-8.74511 l 0,-63.8086 q 0,-5.58105 3.03222,-8.56933 3.07618,-3.03223 8.56934,-3.03223 l 54.18457,0 q 6.28418,0 9.84375,2.90039 3.55957,2.85645 3.55957,8.70117 l 0,63.8086 z"
         style="font-style:normal;font-variant:normal;font-weight:bold;font-stretch:normal;font-size:90px;font-family:'Linux Biolinum Keyboard';-inkscape-font-specification:'Linux Biolinum Keyboard Bold'"
         id="path4418" />
    </g>
    <g
       transform="translate(441.2343,41.561078)"
       style="font-style:normal;font-weight:normal;font-size:6.37070084px;line-height:125%;font-family:Sans;letter-spacing:0px;word-spacing:0px;fill:#000000;fill-opacity:1;stroke:none;stroke-width:1px;stroke-linecap:butt;stroke-linejoin:miter;stroke-opacity:1"
       id="flowRoot4404-55-5">
      <path
         d="m 332.73437,459.69098 q 0,1.71386 1.23047,2.19726 1.27442,0.4834 6.15235,0.4834 7.99804,0 11.90918,-3.07617 3.91113,-3.12012 3.91113,-12.65625 0,-20.96191 -17.53418,-20.96191 -2.90039,0 -4.30664,0.52734 -1.36231,0.52734 -1.36231,2.15332 l 0,31.33301 z m -4.30664,-37.35352 q 2.50489,0 6.28418,-0.13183 3.7793,-0.13184 6.19629,-0.13184 9.79981,0 17.31446,6.85547 7.51464,6.81152 7.51464,16.08398 0,5.93262 -2.28515,10.28321 -2.28516,4.30664 -5.97656,6.5039 -3.69141,2.19727 -7.51465,3.20801 -3.82324,0.9668 -7.77832,0.9668 -3.69141,0 -7.47071,-0.0879 -3.77929,-0.0879 -6.28418,-0.0879 l -4.96582,0.26367 -0.0879,-0.26367 q 0.70313,-4.79004 0.70313,-13.49121 l 0,-16.4795 q 0,-8.48144 -0.70313,-13.49121 l 0.17578,-0.26367 q 2.54883,0.26367 4.87793,0.26367 z m -10.45898,-17.44629 q -4.04297,0 -6.24023,2.15332 -2.15332,2.15332 -2.15332,6.19629 l 0,61.04004 q 0,7.4707 8.39355,7.4707 l 51.45996,0 q 4.04297,0 5.75684,-1.71386 1.71386,-1.71387 1.71386,-5.75684 l 0,-61.04004 q 0,-8.34961 -7.4707,-8.34961 l -51.45996,0 z m 67.58789,72.15821 q 0,6.19629 -2.41699,8.833 -2.37305,2.68067 -8.30567,2.68067 l -56.86523,0 q -6.1084,0 -8.87695,-2.76856 -2.72461,-2.72461 -2.72461,-8.74511 l 0,-63.8086 q 0,-5.58105 3.03222,-8.56933 3.07618,-3.03223 8.56934,-3.03223 l 54.18457,0 q 6.28418,0 9.84375,2.90039 3.55957,2.85645 3.55957,8.70117 l 0,63.8086 z"
         style="font-style:normal;font-variant:normal;font-weight:bold;font-stretch:normal;font-size:90px;font-family:'Linux Biolinum Keyboard';-inkscape-font-specification:'Linux Biolinum Keyboard Bold'"
         id="path4415" />
    </g>
    <g
       transform="translate(532.66287,-19.867497)"
       style="font-style:normal;font-weight:normal;font-size:6.37070084px;line-height:125%;font-family:Sans;letter-spacing:0px;word-spacing:0px;fill:#000000;fill-opacity:1;stroke:none;stroke-width:1px;stroke-linecap:butt;stroke-linejoin:miter;stroke-opacity:1"
       id="flowRoot4404-55-7">
      <path
         d="m 343.06152,425.01813 q -5.40527,0 -8.833,4.43847 -3.38379,4.39453 -3.38379,14.28223 0,9.36035 4.04297,14.23828 4.04296,4.83398 10.45898,4.83398 12.04102,0 12.04102,-17.97363 0,-10.37109 -3.51563,-15.07324 -3.51562,-4.74609 -10.81055,-4.74609 z m 24.12598,18.54492 q 0,10.23926 -6.24023,16.56738 -6.24024,6.28418 -16.9629,6.28418 -10.06347,0 -16.52343,-6.02051 -6.41602,-6.02051 -6.41602,-15.55664 0,-9.97558 6.37207,-16.69922 6.37207,-6.72363 16.56738,-6.72363 10.72266,0 16.9629,6.06445 6.24023,6.02051 6.24023,16.08399 z m -49.21875,-38.67188 q -4.04297,0 -6.24023,2.15332 -2.15332,2.15332 -2.15332,6.19629 l 0,61.04004 q 0,7.4707 8.39355,7.4707 l 51.45996,0 q 4.04297,0 5.75684,-1.71386 1.71386,-1.71387 1.71386,-5.75684 l 0,-61.04004 q 0,-8.34961 -7.4707,-8.34961 l -51.45996,0 z m 67.58789,72.15821 q 0,6.19629 -2.41699,8.833 -2.37305,2.68067 -8.30567,2.68067 l -56.86523,0 q -6.1084,0 -8.87695,-2.76856 -2.72461,-2.72461 -2.72461,-8.74511 l 0,-63.8086 q 0,-5.58105 3.03222,-8.56933 3.07618,-3.03223 8.56934,-3.03223 l 54.18457,0 q 6.28418,0 9.84375,2.90039 3.55957,2.85645 3.55957,8.70117 l 0,63.8086 z"
         style="font-style:normal;font-variant:normal;font-weight:bold;font-stretch:normal;font-size:90px;font-family:'Linux Biolinum Keyboard';-inkscape-font-specification:'Linux Biolinum Keyboard Bold'"
         id="path4412" />
    </g>
    <g
       transform="translate(625.52,34.418216)"
       style="font-style:normal;font-weight:normal;font-size:6.37070084px;line-height:125%;font-family:Sans;letter-spacing:0px;word-spacing:0px;fill:#000000;fill-opacity:1;stroke:none;stroke-width:1px;stroke-linecap:butt;stroke-linejoin:miter;stroke-opacity:1"
       id="flowRoot4404-55-66">
      <path
         d="m 323.37402,421.06305 4.65821,0 q 7.11914,14.76562 16.47949,32.16797 l 17.3584,-32.16797 4.35058,0 q 0.61524,5.40527 1.58203,14.76562 1.01075,9.36035 1.84571,16.4795 0.8789,7.11914 1.75781,13.66699 -1.01074,-0.17578 -4.04297,-0.17578 -2.98828,0 -4.04297,0.17578 -1.80176,-22.06055 -3.03222,-32.12403 -11.77735,21.70899 -16.30372,31.94825 l -2.7246,0 q -2.9004,-6.28418 -14.80957,-29.61914 -2.59278,22.06054 -2.72461,29.79492 -0.70313,-0.17578 -3.25196,-0.17578 -2.50488,0 -3.20801,0.17578 4.7461,-31.59668 6.1084,-44.91211 z m -5.40527,-16.17188 q -4.04297,0 -6.24023,2.15332 -2.15332,2.15332 -2.15332,6.19629 l 0,61.04004 q 0,7.4707 8.39355,7.4707 l 51.45996,0 q 4.04297,0 5.75684,-1.71386 1.71386,-1.71387 1.71386,-5.75684 l 0,-61.04004 q 0,-8.34961 -7.4707,-8.34961 l -51.45996,0 z m 67.58789,72.15821 q 0,6.19629 -2.41699,8.833 -2.37305,2.68067 -8.30567,2.68067 l -56.86523,0 q -6.1084,0 -8.87695,-2.76856 -2.72461,-2.72461 -2.72461,-8.74511 l 0,-63.8086 q 0,-5.58105 3.03222,-8.56933 3.07618,-3.03223 8.56934,-3.03223 l 54.18457,0 q 6.28418,0 9.84375,2.90039 3.55957,2.85645 3.55957,8.70117 l 0,63.8086 z"
         style="font-style:normal;font-variant:normal;font-weight:bold;font-stretch:normal;font-size:90px;font-family:'Linux Biolinum Keyboard';-inkscape-font-specification:'Linux Biolinum Keyboard Bold'"
         id="path4409"
         inkscape:connector-curvature="0" />
    </g>
  </g>
</svg>
